<svg width="46" height="46" viewBox="0 0 46 46" fill="none" xmlns="http://www.w3.org/2000/svg">
<g clip-path="url(#clip0_186_37)">
<path fill-rule="evenodd" clip-rule="evenodd" d="M15.8948 24.3551C15.5355 23.9957 15.3337 23.5083 15.3337 23C15.3337 22.4918 15.5355 22.0044 15.8948 21.6449L26.7374 10.8024C26.9142 10.6193 27.1257 10.4733 27.3596 10.3728C27.5934 10.2724 27.8449 10.2195 28.0994 10.2173C28.3539 10.2151 28.6063 10.2636 28.8418 10.3599C29.0774 10.4563 29.2914 10.5986 29.4713 10.7786C29.6513 10.9586 29.7936 11.1726 29.89 11.4081C29.9864 11.6437 30.0349 11.896 30.0326 12.1505C30.0304 12.405 29.9776 12.6565 29.8771 12.8904C29.7767 13.1242 29.6306 13.3357 29.4476 13.5125L19.9601 23L29.4476 32.4875C29.7967 32.849 29.9899 33.3332 29.9855 33.8357C29.9812 34.3383 29.7796 34.819 29.4242 35.1743C29.0689 35.5297 28.5881 35.7313 28.0856 35.7356C27.5831 35.74 27.0989 35.5468 26.7374 35.1977L15.8948 24.3551Z" fill="#FFC5C1"/>
</g>
<defs>
<clipPath id="clip0_186_37">
<rect width="46" height="46" fill="white"/>
</clipPath>
</defs>
</svg>
