<svg width="46" height="46" viewBox="0 0 46 46" fill="none" xmlns="http://www.w3.org/2000/svg">
<g clip-path="url(#clip0_186_33)">
<path fill-rule="evenodd" clip-rule="evenodd" d="M30.1052 21.6449C30.4645 22.0043 30.6663 22.4917 30.6663 23C30.6663 23.5082 30.4645 23.9956 30.1052 24.3551L19.2626 35.1976C19.0858 35.3807 18.8743 35.5267 18.6404 35.6272C18.4066 35.7276 18.1551 35.7805 17.9006 35.7827C17.6461 35.7849 17.3937 35.7364 17.1582 35.6401C16.9226 35.5437 16.7086 35.4014 16.5287 35.2214C16.3487 35.0414 16.2064 34.8274 16.11 34.5919C16.0136 34.3563 15.9651 34.104 15.9674 33.8495C15.9696 33.595 16.0224 33.3435 16.1229 33.1096C16.2233 32.8758 16.3694 32.6643 16.5524 32.4875L26.0399 23L16.5524 13.5125C16.2033 13.151 16.0101 12.6668 16.0145 12.1643C16.0188 11.6617 16.2204 11.181 16.5758 10.8257C16.9311 10.4703 17.4119 10.2687 17.9144 10.2644C18.4169 10.26 18.9011 10.4532 19.2626 10.8023L30.1052 21.6449Z" fill="#FFC5C1"/>
</g>
<defs>
<clipPath id="clip0_186_33">
<rect width="46" height="46" fill="white"/>
</clipPath>
</defs>
</svg>
