<svg width="32" height="32" viewBox="0 0 32 32" fill="none" xmlns="http://www.w3.org/2000/svg">
<path d="M19.472 3.68001C17.4178 3.44618 15.3436 3.44618 13.2893 3.68001L11.1627 3.92268C11.0101 3.94021 10.8682 4.0099 10.7611 4.11995C10.654 4.23 10.5881 4.37368 10.5747 4.52668L10.4107 6.36935C10.1358 9.46681 10.1358 12.5825 10.4107 15.68L10.5747 17.5227C10.5893 17.6887 10.6656 17.8432 10.7885 17.9557C10.9114 18.0682 11.072 18.1307 11.2387 18.1307H14V28C14.0003 28.138 14.0433 28.2725 14.1232 28.3849C14.2031 28.4974 14.3159 28.5823 14.4461 28.628C14.5763 28.6736 14.7175 28.6777 14.8501 28.6398C14.9828 28.6018 15.1003 28.5236 15.1867 28.416L15.708 27.7627C18.8142 23.8743 21.2877 19.5204 23.0373 14.8613L23.2907 14.1853C23.3286 14.0845 23.3415 13.9759 23.3283 13.8689C23.3151 13.762 23.2762 13.6598 23.2148 13.5712C23.1535 13.4826 23.0715 13.4102 22.9761 13.3602C22.8806 13.3101 22.7745 13.284 22.6667 13.284H19.0493L22.1493 4.81468C22.1841 4.71991 22.1969 4.61848 22.1867 4.51804C22.1766 4.4176 22.1438 4.32078 22.0907 4.23489C22.0377 4.14899 21.9659 4.07625 21.8806 4.02217C21.7954 3.96809 21.699 3.93407 21.5987 3.92268L19.472 3.68001Z" fill="#FFC5C1"/>
</svg>
