<svg width="64" height="64" viewBox="0 0 64 64" fill="none" xmlns="http://www.w3.org/2000/svg">
<path d="M10.6663 48H15.9997V58.8827L29.6023 48H42.6663C45.6077 48 47.9997 45.608 47.9997 42.6667V21.3333C47.9997 18.392 45.6077 16 42.6663 16H10.6663C7.72501 16 5.33301 18.392 5.33301 21.3333V42.6667C5.33301 45.608 7.72501 48 10.6663 48Z" fill="#FFC5C1"/>
<path d="M53.3333 5.33331H21.3333C18.392 5.33331 16 7.72531 16 10.6666H48C50.9413 10.6666 53.3333 13.0586 53.3333 16V37.3333C56.2747 37.3333 58.6667 34.9413 58.6667 32V10.6666C58.6667 7.72531 56.2747 5.33331 53.3333 5.33331Z" fill="#FFC5C1"/>
</svg>
