<svg width="173" height="148" viewBox="0 0 173 148" fill="none" xmlns="http://www.w3.org/2000/svg">
<g clip-path="url(#clip0_488_241)">
<path d="M30.0419 75.5262C30.0079 76.6869 29.6875 77.8375 29.099 78.9123C28.5106 79.9871 27.6655 80.9651 26.6122 81.7905C25.5588 82.6158 24.3178 83.2723 22.9599 83.7225C21.602 84.1727 20.1539 84.4078 18.6982 84.4143L18.2841 98.03L154.076 97.4816L154.485 83.8579C148.366 83.8792 143.514 79.9465 143.66 75.0593C143.806 70.172 148.884 66.2024 155.008 66.1792L155.418 52.5555L19.6283 53.1078L19.2209 66.7356C22.1603 66.7234 24.9516 67.6427 26.9808 69.2912C29.0101 70.9397 30.1111 73.1825 30.0419 75.5262Z" fill="white"/>
<path d="M47.6416 80.806V84.064C46.5256 84.832 45.1396 85.216 43.4836 85.216C41.8276 85.216 40.5316 84.7 39.5956 83.668C38.6716 82.624 38.2096 81.082 38.2096 79.042C38.2096 78.142 38.3236 77.332 38.5516 76.612C38.7916 75.892 39.0976 75.298 39.4696 74.83C39.8536 74.362 40.2976 73.972 40.8016 73.66C41.7616 73.096 42.8476 72.814 44.0596 72.814C45.2836 72.814 46.4236 73.06 47.4796 73.552V76.612L45.6436 76.738V75.334C45.6436 75.154 45.6196 75.022 45.5716 74.938C45.4396 74.71 44.8936 74.596 43.9336 74.596C41.6176 74.596 40.4596 76.03 40.4596 78.898C40.4596 81.922 41.5036 83.434 43.5916 83.434C44.4196 83.434 45.0556 83.29 45.4996 83.002V80.32H45.4816L44.0956 80.266V78.736H48.5776V80.176L48.1636 80.212C47.9716 80.236 47.8336 80.29 47.7496 80.374C47.6776 80.446 47.6416 80.59 47.6416 80.806ZM54.6729 75.946V83.506L55.6989 83.56V85H51.4149V83.632L52.0089 83.578C52.3569 83.542 52.5309 83.35 52.5309 83.002V77.998C52.5309 77.794 52.4949 77.656 52.4229 77.584C52.3629 77.512 52.2489 77.476 52.0809 77.476L51.4509 77.44V75.946H54.6729ZM52.4049 74.398C52.1529 74.146 52.0269 73.828 52.0269 73.444C52.0269 73.06 52.1529 72.742 52.4049 72.49C52.6569 72.226 52.9869 72.094 53.3949 72.094C53.8029 72.094 54.1329 72.226 54.3849 72.49C54.6489 72.742 54.7809 73.06 54.7809 73.444C54.7809 73.828 54.6489 74.146 54.3849 74.398C54.1329 74.638 53.8029 74.758 53.3949 74.758C52.9869 74.758 52.6569 74.638 52.4049 74.398ZM63.1311 75.19C64.3071 75.19 65.1771 75.448 65.7411 75.964C66.3051 76.48 66.5871 77.302 66.5871 78.43V85H65.4351L65.1291 83.632H65.0571C64.7811 83.98 64.4931 84.274 64.1931 84.514C63.9051 84.742 63.5691 84.91 63.1851 85.018C62.8131 85.126 62.3571 85.18 61.8171 85.18C61.2411 85.18 60.7191 85.078 60.2511 84.874C59.7951 84.67 59.4351 84.358 59.1711 83.938C58.9071 83.506 58.7751 82.966 58.7751 82.318C58.7751 81.358 59.1531 80.62 59.9091 80.104C60.6651 79.576 61.8291 79.288 63.4011 79.24L65.0391 79.186V78.61C65.0391 77.806 64.8651 77.248 64.5171 76.936C64.1691 76.624 63.6771 76.468 63.0411 76.468C62.5371 76.468 62.0571 76.546 61.6011 76.702C61.1451 76.846 60.7191 77.014 60.3231 77.206L59.8371 76.018C60.2571 75.79 60.7551 75.598 61.3311 75.442C61.9071 75.274 62.5071 75.19 63.1311 75.19ZM63.5991 80.338C62.3991 80.386 61.5651 80.578 61.0971 80.914C60.6411 81.25 60.4131 81.724 60.4131 82.336C60.4131 82.876 60.5751 83.272 60.8991 83.524C61.2351 83.776 61.6611 83.902 62.1771 83.902C62.9931 83.902 63.6711 83.68 64.2111 83.236C64.7511 82.78 65.0211 82.084 65.0211 81.148V80.284L63.5991 80.338ZM64.8231 71.86C64.8231 72.316 64.6851 72.67 64.4091 72.922C64.1331 73.162 63.7851 73.33 63.3651 73.426L63.2751 74.38H62.3031L62.1771 72.85C62.6091 72.778 62.9511 72.676 63.2031 72.544C63.4671 72.4 63.5991 72.19 63.5991 71.914C63.5991 71.626 63.4851 71.434 63.2571 71.338C63.0411 71.242 62.7651 71.194 62.4291 71.194C62.2731 71.194 62.1111 71.2 61.9431 71.212C61.7871 71.224 61.6611 71.242 61.5651 71.266V70.33C61.6731 70.294 61.8051 70.27 61.9611 70.258C62.1291 70.234 62.3271 70.222 62.5551 70.222C63.2751 70.222 63.8331 70.354 64.2291 70.618C64.6251 70.882 64.8231 71.296 64.8231 71.86ZM70.3229 77.404V75.946H73.3649V77.116C74.0369 76.156 74.9549 75.676 76.1189 75.676C77.2949 75.676 78.0869 76.156 78.4949 77.116C79.1669 76.156 80.0789 75.676 81.2309 75.676C82.0949 75.676 82.7609 75.94 83.2289 76.468C83.6969 76.984 83.9309 77.764 83.9309 78.808V83.506L84.9569 83.56V85H80.6729V83.632L81.2669 83.578C81.4469 83.554 81.5729 83.506 81.6449 83.434C81.7289 83.35 81.7769 83.206 81.7889 83.002V79.276C81.7889 78.616 81.7109 78.13 81.5549 77.818C81.4109 77.494 81.0629 77.332 80.5109 77.332C79.9589 77.332 79.5329 77.5 79.2329 77.836C78.9449 78.172 78.8009 78.622 78.8009 79.186V83.506L79.7909 83.56V85H75.5429V83.632L76.1369 83.578C76.3169 83.554 76.4489 83.506 76.5329 83.434C76.6169 83.35 76.6589 83.2 76.6589 82.984V79.276C76.6589 78.616 76.5809 78.13 76.4249 77.818C76.2809 77.494 75.9269 77.332 75.3629 77.332C74.8109 77.332 74.3909 77.506 74.1029 77.854C73.8149 78.202 73.6709 78.634 73.6709 79.15V83.506L74.6429 83.56V85H70.3949V83.632L70.9889 83.578C71.1689 83.554 71.3009 83.506 71.3849 83.434C71.4689 83.35 71.5109 83.2 71.5109 82.984H71.5289V78.016C71.5289 77.812 71.4929 77.674 71.4209 77.602C71.3609 77.518 71.2469 77.47 71.0789 77.458L70.3229 77.404ZM97.5522 82.096V72.664L94.7442 74.104L93.6882 72.256L98.0562 69.544H100.408V82.84L102.904 82.96V85H94.5522V83.032L96.8562 82.888C97.0962 82.872 97.2722 82.808 97.3842 82.696C97.4962 82.584 97.5522 82.384 97.5522 82.096ZM112.459 69.232C116.091 69.232 117.907 71.864 117.907 77.128C117.907 79.928 117.435 81.984 116.491 83.296C115.547 84.592 114.147 85.24 112.291 85.24C110.435 85.24 109.051 84.6 108.139 83.32C107.227 82.024 106.771 80.016 106.771 77.296C106.771 74.576 107.275 72.552 108.283 71.224C109.291 69.896 110.683 69.232 112.459 69.232ZM110.347 81.712C110.811 82.528 111.475 82.936 112.339 82.936C113.203 82.936 113.867 82.512 114.331 81.664C114.811 80.816 115.051 79.344 115.051 77.248C115.051 75.136 114.819 73.664 114.355 72.832C113.907 72 113.243 71.584 112.363 71.584C111.483 71.584 110.811 72.032 110.347 72.928C109.899 73.808 109.675 75.288 109.675 77.368C109.675 79.432 109.899 80.88 110.347 81.712ZM123.454 82.312V70.624C123.454 70.368 123.406 70.192 123.31 70.096C123.23 70 123.078 69.944 122.854 69.928L122.014 69.88V67.888H126.286V78.28C127.166 78.2 127.934 77.928 128.59 77.464C129.246 77 129.694 76.392 129.934 75.64C129.982 75.48 130.006 75.352 130.006 75.256C130.006 74.984 129.854 74.848 129.55 74.848L128.638 74.8V72.928H133.606V74.872L132.454 74.92C132.246 76.552 131.542 77.84 130.342 78.784L132.694 83.008L134.158 83.08V85H130.654L127.918 80.008C127.39 80.152 126.846 80.264 126.286 80.344V83.008H126.31L127.678 83.08V85H121.966V83.176L122.758 83.104C122.998 83.072 123.174 83.008 123.286 82.912C123.398 82.8 123.454 82.6 123.454 82.312Z" fill="#F95656"/>
</g>
<defs>
<clipPath id="clip0_488_241">
<rect width="171.164" height="146.512" fill="white" transform="translate(1.27832) rotate(0.5)"/>
</clipPath>
</defs>
</svg>
