<svg width="173" height="148" viewBox="0 0 173 148" fill="none" xmlns="http://www.w3.org/2000/svg">
<g clip-path="url(#clip0_488_247)">
<path d="M30.0419 75.5262C30.0079 76.6869 29.6875 77.8375 29.099 78.9123C28.5106 79.9871 27.6655 80.9651 26.6122 81.7905C25.5588 82.6158 24.3178 83.2723 22.9599 83.7225C21.602 84.1727 20.1539 84.4078 18.6982 84.4143L18.2841 98.03L154.076 97.4816L154.485 83.8579C148.366 83.8792 143.514 79.9465 143.66 75.0593C143.806 70.172 148.884 66.2024 155.008 66.1792L155.418 52.5555L19.6283 53.1078L19.2209 66.7356C22.1603 66.7234 24.9516 67.6427 26.9808 69.2912C29.0101 70.9397 30.1111 73.1825 30.0419 75.5262Z" fill="white"/>
<path d="M47.3956 80.806V84.064C46.2796 84.832 44.8936 85.216 43.2376 85.216C41.5816 85.216 40.2856 84.7 39.3496 83.668C38.4256 82.624 37.9636 81.082 37.9636 79.042C37.9636 78.142 38.0776 77.332 38.3056 76.612C38.5456 75.892 38.8516 75.298 39.2236 74.83C39.6076 74.362 40.0516 73.972 40.5556 73.66C41.5156 73.096 42.6016 72.814 43.8136 72.814C45.0376 72.814 46.1776 73.06 47.2336 73.552V76.612L45.3976 76.738V75.334C45.3976 75.154 45.3736 75.022 45.3256 74.938C45.1936 74.71 44.6476 74.596 43.6876 74.596C41.3716 74.596 40.2136 76.03 40.2136 78.898C40.2136 81.922 41.2576 83.434 43.3456 83.434C44.1736 83.434 44.8096 83.29 45.2536 83.002V80.32H45.2356L43.8496 80.266V78.736H48.3316V80.176L47.9176 80.212C47.7256 80.236 47.5876 80.29 47.5036 80.374C47.4316 80.446 47.3956 80.59 47.3956 80.806ZM54.4268 75.946V83.506L55.4528 83.56V85H51.1688V83.632L51.7628 83.578C52.1108 83.542 52.2848 83.35 52.2848 83.002V77.998C52.2848 77.794 52.2488 77.656 52.1768 77.584C52.1168 77.512 52.0028 77.476 51.8348 77.476L51.2048 77.44V75.946H54.4268ZM52.1588 74.398C51.9068 74.146 51.7808 73.828 51.7808 73.444C51.7808 73.06 51.9068 72.742 52.1588 72.49C52.4108 72.226 52.7408 72.094 53.1488 72.094C53.5568 72.094 53.8868 72.226 54.1388 72.49C54.4028 72.742 54.5348 73.06 54.5348 73.444C54.5348 73.828 54.4028 74.146 54.1388 74.398C53.8868 74.638 53.5568 74.758 53.1488 74.758C52.7408 74.758 52.4108 74.638 52.1588 74.398ZM62.885 75.19C64.061 75.19 64.931 75.448 65.495 75.964C66.059 76.48 66.341 77.302 66.341 78.43V85H65.189L64.883 83.632H64.811C64.535 83.98 64.247 84.274 63.947 84.514C63.659 84.742 63.323 84.91 62.939 85.018C62.567 85.126 62.111 85.18 61.571 85.18C60.995 85.18 60.473 85.078 60.005 84.874C59.549 84.67 59.189 84.358 58.925 83.938C58.661 83.506 58.529 82.966 58.529 82.318C58.529 81.358 58.907 80.62 59.663 80.104C60.419 79.576 61.583 79.288 63.155 79.24L64.793 79.186V78.61C64.793 77.806 64.619 77.248 64.271 76.936C63.923 76.624 63.431 76.468 62.795 76.468C62.291 76.468 61.811 76.546 61.355 76.702C60.899 76.846 60.473 77.014 60.077 77.206L59.591 76.018C60.011 75.79 60.509 75.598 61.085 75.442C61.661 75.274 62.261 75.19 62.885 75.19ZM63.353 80.338C62.153 80.386 61.319 80.578 60.851 80.914C60.395 81.25 60.167 81.724 60.167 82.336C60.167 82.876 60.329 83.272 60.653 83.524C60.989 83.776 61.415 83.902 61.931 83.902C62.747 83.902 63.425 83.68 63.965 83.236C64.505 82.78 64.775 82.084 64.775 81.148V80.284L63.353 80.338ZM64.577 71.86C64.577 72.316 64.439 72.67 64.163 72.922C63.887 73.162 63.539 73.33 63.119 73.426L63.029 74.38H62.057L61.931 72.85C62.363 72.778 62.705 72.676 62.957 72.544C63.221 72.4 63.353 72.19 63.353 71.914C63.353 71.626 63.239 71.434 63.011 71.338C62.795 71.242 62.519 71.194 62.183 71.194C62.027 71.194 61.865 71.2 61.697 71.212C61.541 71.224 61.415 71.242 61.319 71.266V70.33C61.427 70.294 61.559 70.27 61.715 70.258C61.883 70.234 62.081 70.222 62.309 70.222C63.029 70.222 63.587 70.354 63.983 70.618C64.379 70.882 64.577 71.296 64.577 71.86ZM70.0768 77.404V75.946H73.1188V77.116C73.7908 76.156 74.7088 75.676 75.8728 75.676C77.0488 75.676 77.8408 76.156 78.2488 77.116C78.9208 76.156 79.8328 75.676 80.9848 75.676C81.8488 75.676 82.5148 75.94 82.9828 76.468C83.4508 76.984 83.6848 77.764 83.6848 78.808V83.506L84.7108 83.56V85H80.4268V83.632L81.0208 83.578C81.2008 83.554 81.3268 83.506 81.3988 83.434C81.4828 83.35 81.5308 83.206 81.5428 83.002V79.276C81.5428 78.616 81.4648 78.13 81.3088 77.818C81.1648 77.494 80.8168 77.332 80.2648 77.332C79.7128 77.332 79.2868 77.5 78.9868 77.836C78.6988 78.172 78.5548 78.622 78.5548 79.186V83.506L79.5448 83.56V85H75.2968V83.632L75.8908 83.578C76.0708 83.554 76.2028 83.506 76.2868 83.434C76.3708 83.35 76.4128 83.2 76.4128 82.984V79.276C76.4128 78.616 76.3348 78.13 76.1788 77.818C76.0348 77.494 75.6808 77.332 75.1168 77.332C74.5648 77.332 74.1448 77.506 73.8568 77.854C73.5688 78.202 73.4248 78.634 73.4248 79.15V83.506L74.3968 83.56V85H70.1488V83.632L70.7428 83.578C70.9228 83.554 71.0548 83.506 71.1388 83.434C71.2228 83.35 71.2648 83.2 71.2648 82.984H71.2828V78.016C71.2828 77.812 71.2468 77.674 71.1748 77.602C71.1148 77.518 71.0008 77.47 70.8328 77.458L70.0768 77.404ZM93.8021 85V83.152L98.5781 77.128C99.0741 76.488 99.4021 76.064 99.5621 75.856C99.7221 75.632 99.8741 75.328 100.018 74.944C100.178 74.544 100.258 74.072 100.258 73.528C100.258 72.968 100.066 72.512 99.6821 72.16C99.3141 71.808 98.8341 71.632 98.2421 71.632C97.6661 71.632 97.2261 71.68 96.9221 71.776C96.6341 71.872 96.4581 71.984 96.3941 72.112C96.3461 72.224 96.3221 72.408 96.3221 72.664V74.368L93.8741 74.2V70.36C95.3781 69.608 96.9221 69.232 98.5061 69.232C100.09 69.232 101.282 69.624 102.082 70.408C102.882 71.176 103.282 72.232 103.282 73.576C103.282 74.92 102.602 76.416 101.242 78.064L97.3781 82.624H103.378V85H93.8021ZM117.464 71.824H111.968L111.488 75.496C113.28 75.624 114.736 76.096 115.856 76.912C116.992 77.712 117.56 78.904 117.56 80.488C117.56 81.784 117.128 82.904 116.264 83.848C115.4 84.792 114.056 85.264 112.232 85.264C111.336 85.264 110.456 85.144 109.592 84.904C108.744 84.664 108.064 84.384 107.552 84.064L108.512 81.856C109.76 82.544 110.96 82.888 112.112 82.888C113.744 82.888 114.56 82.104 114.56 80.536C114.56 78.584 112.648 77.608 108.824 77.608L109.856 69.544H114.632C115 69.544 115.184 69.32 115.184 68.872V67.84L117.464 68.008V71.824ZM123.701 82.312V70.624C123.701 70.368 123.653 70.192 123.557 70.096C123.477 70 123.325 69.944 123.101 69.928L122.261 69.88V67.888H126.533V78.28C127.413 78.2 128.181 77.928 128.837 77.464C129.493 77 129.941 76.392 130.181 75.64C130.229 75.48 130.253 75.352 130.253 75.256C130.253 74.984 130.101 74.848 129.797 74.848L128.885 74.8V72.928H133.853V74.872L132.701 74.92C132.493 76.552 131.789 77.84 130.589 78.784L132.941 83.008L134.405 83.08V85H130.901L128.165 80.008C127.637 80.152 127.093 80.264 126.533 80.344V83.008H126.557L127.925 83.08V85H122.213V83.176L123.005 83.104C123.245 83.072 123.421 83.008 123.533 82.912C123.645 82.8 123.701 82.6 123.701 82.312Z" fill="#F95656"/>
</g>
<defs>
<clipPath id="clip0_488_247">
<rect width="171.164" height="146.512" fill="white" transform="translate(1.27832) rotate(0.5)"/>
</clipPath>
</defs>
</svg>
