<svg width="173" height="148" viewBox="0 0 173 148" fill="none" xmlns="http://www.w3.org/2000/svg">
<g clip-path="url(#clip0_488_244)">
<path d="M30.0419 75.5262C30.0079 76.6869 29.6875 77.8375 29.099 78.9123C28.5106 79.9871 27.6655 80.9651 26.6122 81.7905C25.5588 82.6158 24.3178 83.2723 22.9599 83.7225C21.602 84.1727 20.1539 84.4078 18.6982 84.4143L18.2841 98.03L154.076 97.4816L154.485 83.8579C148.366 83.8792 143.514 79.9465 143.66 75.0593C143.806 70.172 148.884 66.2024 155.008 66.1792L155.418 52.5555L19.6283 53.1078L19.2209 66.7356C22.1603 66.7234 24.9516 67.6427 26.9808 69.2912C29.0101 70.9397 30.1111 73.1825 30.0419 75.5262Z" fill="white"/>
<path d="M47.9815 80.806V84.064C46.8655 84.832 45.4795 85.216 43.8235 85.216C42.1675 85.216 40.8715 84.7 39.9355 83.668C39.0115 82.624 38.5495 81.082 38.5495 79.042C38.5495 78.142 38.6635 77.332 38.8915 76.612C39.1315 75.892 39.4375 75.298 39.8095 74.83C40.1935 74.362 40.6375 73.972 41.1415 73.66C42.1015 73.096 43.1875 72.814 44.3995 72.814C45.6235 72.814 46.7635 73.06 47.8195 73.552V76.612L45.9835 76.738V75.334C45.9835 75.154 45.9595 75.022 45.9115 74.938C45.7795 74.71 45.2335 74.596 44.2735 74.596C41.9575 74.596 40.7995 76.03 40.7995 78.898C40.7995 81.922 41.8435 83.434 43.9315 83.434C44.7595 83.434 45.3955 83.29 45.8395 83.002V80.32H45.8215L44.4355 80.266V78.736H48.9175V80.176L48.5035 80.212C48.3115 80.236 48.1735 80.29 48.0895 80.374C48.0175 80.446 47.9815 80.59 47.9815 80.806ZM55.0127 75.946V83.506L56.0387 83.56V85H51.7547V83.632L52.3487 83.578C52.6967 83.542 52.8707 83.35 52.8707 83.002V77.998C52.8707 77.794 52.8347 77.656 52.7627 77.584C52.7027 77.512 52.5887 77.476 52.4207 77.476L51.7907 77.44V75.946H55.0127ZM52.7447 74.398C52.4927 74.146 52.3667 73.828 52.3667 73.444C52.3667 73.06 52.4927 72.742 52.7447 72.49C52.9967 72.226 53.3267 72.094 53.7347 72.094C54.1427 72.094 54.4727 72.226 54.7247 72.49C54.9887 72.742 55.1207 73.06 55.1207 73.444C55.1207 73.828 54.9887 74.146 54.7247 74.398C54.4727 74.638 54.1427 74.758 53.7347 74.758C53.3267 74.758 52.9967 74.638 52.7447 74.398ZM63.4709 75.19C64.6469 75.19 65.5169 75.448 66.0809 75.964C66.6449 76.48 66.9269 77.302 66.9269 78.43V85H65.7749L65.4689 83.632H65.3969C65.1209 83.98 64.8329 84.274 64.5329 84.514C64.2449 84.742 63.9089 84.91 63.5249 85.018C63.1529 85.126 62.6969 85.18 62.1569 85.18C61.5809 85.18 61.0589 85.078 60.5909 84.874C60.1349 84.67 59.7749 84.358 59.5109 83.938C59.2469 83.506 59.1149 82.966 59.1149 82.318C59.1149 81.358 59.4929 80.62 60.2489 80.104C61.0049 79.576 62.1689 79.288 63.7409 79.24L65.3789 79.186V78.61C65.3789 77.806 65.2049 77.248 64.8569 76.936C64.5089 76.624 64.0169 76.468 63.3809 76.468C62.8769 76.468 62.3969 76.546 61.9409 76.702C61.4849 76.846 61.0589 77.014 60.6629 77.206L60.1769 76.018C60.5969 75.79 61.0949 75.598 61.6709 75.442C62.2469 75.274 62.8469 75.19 63.4709 75.19ZM63.9389 80.338C62.7389 80.386 61.9049 80.578 61.4369 80.914C60.9809 81.25 60.7529 81.724 60.7529 82.336C60.7529 82.876 60.9149 83.272 61.2389 83.524C61.5749 83.776 62.0009 83.902 62.5169 83.902C63.3329 83.902 64.0109 83.68 64.5509 83.236C65.0909 82.78 65.3609 82.084 65.3609 81.148V80.284L63.9389 80.338ZM65.1629 71.86C65.1629 72.316 65.0249 72.67 64.7489 72.922C64.4729 73.162 64.1249 73.33 63.7049 73.426L63.6149 74.38H62.6429L62.5169 72.85C62.9489 72.778 63.2909 72.676 63.5429 72.544C63.8069 72.4 63.9389 72.19 63.9389 71.914C63.9389 71.626 63.8249 71.434 63.5969 71.338C63.3809 71.242 63.1049 71.194 62.7689 71.194C62.6129 71.194 62.4509 71.2 62.2829 71.212C62.1269 71.224 62.0009 71.242 61.9049 71.266V70.33C62.0129 70.294 62.1449 70.27 62.3009 70.258C62.4689 70.234 62.6669 70.222 62.8949 70.222C63.6149 70.222 64.1729 70.354 64.5689 70.618C64.9649 70.882 65.1629 71.296 65.1629 71.86ZM70.6628 77.404V75.946H73.7048V77.116C74.3768 76.156 75.2948 75.676 76.4588 75.676C77.6348 75.676 78.4268 76.156 78.8348 77.116C79.5068 76.156 80.4188 75.676 81.5708 75.676C82.4348 75.676 83.1008 75.94 83.5688 76.468C84.0368 76.984 84.2708 77.764 84.2708 78.808V83.506L85.2968 83.56V85H81.0128V83.632L81.6068 83.578C81.7868 83.554 81.9128 83.506 81.9848 83.434C82.0688 83.35 82.1168 83.206 82.1288 83.002V79.276C82.1288 78.616 82.0508 78.13 81.8948 77.818C81.7508 77.494 81.4028 77.332 80.8508 77.332C80.2988 77.332 79.8728 77.5 79.5728 77.836C79.2848 78.172 79.1408 78.622 79.1408 79.186V83.506L80.1308 83.56V85H75.8828V83.632L76.4768 83.578C76.6568 83.554 76.7888 83.506 76.8728 83.434C76.9568 83.35 76.9988 83.2 76.9988 82.984V79.276C76.9988 78.616 76.9208 78.13 76.7648 77.818C76.6208 77.494 76.2668 77.332 75.7028 77.332C75.1508 77.332 74.7308 77.506 74.4428 77.854C74.1548 78.202 74.0108 78.634 74.0108 79.15V83.506L74.9828 83.56V85H70.7348V83.632L71.3288 83.578C71.5088 83.554 71.6408 83.506 71.7248 83.434C71.8088 83.35 71.8508 83.2 71.8508 82.984H71.8688V78.016C71.8688 77.812 71.8328 77.674 71.7608 77.602C71.7008 77.518 71.5868 77.47 71.4188 77.458L70.6628 77.404ZM97.8921 82.096V72.664L95.0841 74.104L94.0281 72.256L98.3961 69.544H100.748V82.84L103.244 82.96V85H94.8921V83.032L97.1961 82.888C97.4361 82.872 97.6121 82.808 97.7241 82.696C97.8361 82.584 97.8921 82.384 97.8921 82.096ZM116.879 71.824H111.383L110.903 75.496C112.695 75.624 114.151 76.096 115.271 76.912C116.407 77.712 116.975 78.904 116.975 80.488C116.975 81.784 116.543 82.904 115.679 83.848C114.815 84.792 113.471 85.264 111.647 85.264C110.751 85.264 109.871 85.144 109.007 84.904C108.159 84.664 107.479 84.384 106.967 84.064L107.927 81.856C109.175 82.544 110.375 82.888 111.527 82.888C113.159 82.888 113.975 82.104 113.975 80.536C113.975 78.584 112.063 77.608 108.239 77.608L109.271 69.544H114.047C114.415 69.544 114.599 69.32 114.599 68.872V67.84L116.879 68.008V71.824ZM123.115 82.312V70.624C123.115 70.368 123.067 70.192 122.971 70.096C122.891 70 122.739 69.944 122.515 69.928L121.675 69.88V67.888H125.947V78.28C126.827 78.2 127.595 77.928 128.251 77.464C128.907 77 129.355 76.392 129.595 75.64C129.643 75.48 129.667 75.352 129.667 75.256C129.667 74.984 129.515 74.848 129.211 74.848L128.299 74.8V72.928H133.267V74.872L132.115 74.92C131.907 76.552 131.203 77.84 130.003 78.784L132.355 83.008L133.819 83.08V85H130.315L127.579 80.008C127.051 80.152 126.507 80.264 125.947 80.344V83.008H125.971L127.339 83.08V85H121.627V83.176L122.419 83.104C122.659 83.072 122.835 83.008 122.947 82.912C123.059 82.8 123.115 82.6 123.115 82.312Z" fill="#F95656"/>
</g>
<defs>
<clipPath id="clip0_488_244">
<rect width="171.164" height="146.512" fill="white" transform="translate(1.27832) rotate(0.5)"/>
</clipPath>
</defs>
</svg>
