<svg width="173" height="148" viewBox="0 0 173 148" fill="none" xmlns="http://www.w3.org/2000/svg">
<g clip-path="url(#clip0_486_236)">
<path d="M30.0419 75.5262C30.0079 76.6869 29.6875 77.8375 29.099 78.9123C28.5106 79.9871 27.6655 80.9651 26.6122 81.7905C25.5588 82.6158 24.3178 83.2723 22.9599 83.7225C21.602 84.1727 20.1539 84.4078 18.6982 84.4143L18.2841 98.03L154.076 97.4816L154.485 83.8579C148.366 83.8792 143.514 79.9465 143.66 75.0593C143.806 70.172 148.884 66.2024 155.008 66.1792L155.418 52.5555L19.6283 53.1078L19.2209 66.7356C22.1603 66.7234 24.9516 67.6427 26.9808 69.2912C29.0101 70.9397 30.1111 73.1825 30.0419 75.5262Z" fill="white"/>
<path d="M54.6307 80.806V84.064C53.5147 84.832 52.1287 85.216 50.4727 85.216C48.8167 85.216 47.5207 84.7 46.5847 83.668C45.6607 82.624 45.1987 81.082 45.1987 79.042C45.1987 78.142 45.3127 77.332 45.5407 76.612C45.7807 75.892 46.0867 75.298 46.4587 74.83C46.8427 74.362 47.2867 73.972 47.7907 73.66C48.7507 73.096 49.8367 72.814 51.0487 72.814C52.2727 72.814 53.4127 73.06 54.4687 73.552V76.612L52.6327 76.738V75.334C52.6327 75.154 52.6087 75.022 52.5607 74.938C52.4287 74.71 51.8827 74.596 50.9227 74.596C48.6067 74.596 47.4487 76.03 47.4487 78.898C47.4487 81.922 48.4927 83.434 50.5807 83.434C51.4087 83.434 52.0447 83.29 52.4887 83.002V80.32H52.4707L51.0847 80.266V78.736H55.5667V80.176L55.1527 80.212C54.9607 80.236 54.8227 80.29 54.7387 80.374C54.6667 80.446 54.6307 80.59 54.6307 80.806ZM61.662 75.946V83.506L62.688 83.56V85H58.404V83.632L58.998 83.578C59.346 83.542 59.52 83.35 59.52 83.002V77.998C59.52 77.794 59.484 77.656 59.412 77.584C59.352 77.512 59.238 77.476 59.07 77.476L58.44 77.44V75.946H61.662ZM59.394 74.398C59.142 74.146 59.016 73.828 59.016 73.444C59.016 73.06 59.142 72.742 59.394 72.49C59.646 72.226 59.976 72.094 60.384 72.094C60.792 72.094 61.122 72.226 61.374 72.49C61.638 72.742 61.77 73.06 61.77 73.444C61.77 73.828 61.638 74.146 61.374 74.398C61.122 74.638 60.792 74.758 60.384 74.758C59.976 74.758 59.646 74.638 59.394 74.398ZM70.1201 75.19C71.2961 75.19 72.1661 75.448 72.7301 75.964C73.2941 76.48 73.5761 77.302 73.5761 78.43V85H72.4241L72.1181 83.632H72.0461C71.7701 83.98 71.4821 84.274 71.1821 84.514C70.8941 84.742 70.5581 84.91 70.1741 85.018C69.8021 85.126 69.3461 85.18 68.8061 85.18C68.2301 85.18 67.7081 85.078 67.2401 84.874C66.7841 84.67 66.4241 84.358 66.1601 83.938C65.8961 83.506 65.7641 82.966 65.7641 82.318C65.7641 81.358 66.1421 80.62 66.8981 80.104C67.6541 79.576 68.8181 79.288 70.3901 79.24L72.0281 79.186V78.61C72.0281 77.806 71.8541 77.248 71.5061 76.936C71.1581 76.624 70.6661 76.468 70.0301 76.468C69.5261 76.468 69.0461 76.546 68.5901 76.702C68.1341 76.846 67.7081 77.014 67.3121 77.206L66.8261 76.018C67.2461 75.79 67.7441 75.598 68.3201 75.442C68.8961 75.274 69.4961 75.19 70.1201 75.19ZM70.5881 80.338C69.3881 80.386 68.5541 80.578 68.0861 80.914C67.6301 81.25 67.4021 81.724 67.4021 82.336C67.4021 82.876 67.5641 83.272 67.8881 83.524C68.2241 83.776 68.6501 83.902 69.1661 83.902C69.9821 83.902 70.6601 83.68 71.2001 83.236C71.7401 82.78 72.0101 82.084 72.0101 81.148V80.284L70.5881 80.338ZM71.8121 71.86C71.8121 72.316 71.6741 72.67 71.3981 72.922C71.1221 73.162 70.7741 73.33 70.3541 73.426L70.2641 74.38H69.2921L69.1661 72.85C69.5981 72.778 69.9401 72.676 70.1921 72.544C70.4561 72.4 70.5881 72.19 70.5881 71.914C70.5881 71.626 70.4741 71.434 70.2461 71.338C70.0301 71.242 69.7541 71.194 69.4181 71.194C69.2621 71.194 69.1001 71.2 68.9321 71.212C68.7761 71.224 68.6501 71.242 68.5541 71.266V70.33C68.6621 70.294 68.7941 70.27 68.9501 70.258C69.1181 70.234 69.3161 70.222 69.5441 70.222C70.2641 70.222 70.8221 70.354 71.2181 70.618C71.6141 70.882 71.8121 71.296 71.8121 71.86ZM77.312 77.404V75.946H80.354V77.116C81.026 76.156 81.944 75.676 83.108 75.676C84.284 75.676 85.076 76.156 85.484 77.116C86.156 76.156 87.068 75.676 88.22 75.676C89.084 75.676 89.75 75.94 90.218 76.468C90.686 76.984 90.92 77.764 90.92 78.808V83.506L91.946 83.56V85H87.662V83.632L88.256 83.578C88.436 83.554 88.562 83.506 88.634 83.434C88.718 83.35 88.766 83.206 88.778 83.002V79.276C88.778 78.616 88.7 78.13 88.544 77.818C88.4 77.494 88.052 77.332 87.5 77.332C86.948 77.332 86.522 77.5 86.222 77.836C85.934 78.172 85.79 78.622 85.79 79.186V83.506L86.78 83.56V85H82.532V83.632L83.126 83.578C83.306 83.554 83.438 83.506 83.522 83.434C83.606 83.35 83.648 83.2 83.648 82.984V79.276C83.648 78.616 83.57 78.13 83.414 77.818C83.27 77.494 82.916 77.332 82.352 77.332C81.8 77.332 81.38 77.506 81.092 77.854C80.804 78.202 80.66 78.634 80.66 79.15V83.506L81.632 83.56V85H77.384V83.632L77.978 83.578C78.158 83.554 78.29 83.506 78.374 83.434C78.458 83.35 78.5 83.2 78.5 82.984H78.518V78.016C78.518 77.812 78.482 77.674 78.41 77.602C78.35 77.518 78.236 77.47 78.068 77.458L77.312 77.404ZM110.229 71.824H104.733L104.253 75.496C106.045 75.624 107.501 76.096 108.621 76.912C109.757 77.712 110.325 78.904 110.325 80.488C110.325 81.784 109.893 82.904 109.029 83.848C108.165 84.792 106.821 85.264 104.997 85.264C104.101 85.264 103.221 85.144 102.357 84.904C101.509 84.664 100.829 84.384 100.317 84.064L101.277 81.856C102.525 82.544 103.725 82.888 104.877 82.888C106.509 82.888 107.325 82.104 107.325 80.536C107.325 78.584 105.413 77.608 101.589 77.608L102.621 69.544H107.397C107.765 69.544 107.949 69.32 107.949 68.872V67.84L110.229 68.008V71.824ZM116.465 82.312V70.624C116.465 70.368 116.417 70.192 116.321 70.096C116.241 70 116.089 69.944 115.865 69.928L115.025 69.88V67.888H119.297V78.28C120.177 78.2 120.945 77.928 121.601 77.464C122.257 77 122.705 76.392 122.945 75.64C122.993 75.48 123.017 75.352 123.017 75.256C123.017 74.984 122.865 74.848 122.561 74.848L121.649 74.8V72.928H126.617V74.872L125.465 74.92C125.257 76.552 124.553 77.84 123.353 78.784L125.705 83.008L127.169 83.08V85H123.665L120.929 80.008C120.401 80.152 119.857 80.264 119.297 80.344V83.008H119.321L120.689 83.08V85H114.977V83.176L115.769 83.104C116.009 83.072 116.185 83.008 116.297 82.912C116.409 82.8 116.465 82.6 116.465 82.312Z" fill="#F95656"/>
</g>
<defs>
<clipPath id="clip0_486_236">
<rect width="171.164" height="146.512" fill="white" transform="translate(1.27832) rotate(0.5)"/>
</clipPath>
</defs>
</svg>
