<svg width="40" height="40" viewBox="0 0 40 40" fill="none" xmlns="http://www.w3.org/2000/svg">
<g filter="url(#filter0_d_498_252)">
<path d="M17.7058 1.489C17.9171 1.04207 18.2441 0.665749 18.6498 0.402605C19.0555 0.139461 19.5237 0 20.0014 0C20.4791 0 20.9473 0.139461 21.353 0.402605C21.7587 0.665749 22.0857 1.04207 22.2969 1.489L25.8547 9.00451L33.8083 10.2093C34.2811 10.2809 34.7253 10.4891 35.0905 10.8104C35.4558 11.1317 35.7275 11.5532 35.875 12.0272C36.0225 12.5012 36.0398 13.0089 35.9251 13.4926C35.8103 13.9764 35.568 14.417 35.2256 14.7646L29.47 20.6149L30.8297 28.8779C30.9106 29.3687 30.8582 29.8734 30.6786 30.3348C30.4989 30.7962 30.1991 31.196 29.813 31.489C29.427 31.782 28.97 31.9566 28.4938 31.9929C28.0177 32.0292 27.5412 31.9259 27.1184 31.6946L19.9998 27.79L12.8844 31.6946C12.4615 31.9259 11.9851 32.0292 11.5089 31.9929C11.0328 31.9566 10.5758 31.782 10.1898 31.489C9.80368 31.196 9.50388 30.7962 9.32422 30.3348C9.14456 29.8734 9.09222 29.3687 9.1731 28.8779L10.5296 20.6149L4.77395 14.7646C4.4315 14.4168 4.18926 13.9759 4.07466 13.4919C3.96006 13.0079 3.97768 12.5001 4.12553 12.026C4.27337 11.5518 4.54553 11.1304 4.91119 10.8093C5.27685 10.4882 5.7214 10.2804 6.19448 10.2093L14.1481 9.00785L17.7058 1.489Z" fill="#F95656"/>
</g>
<defs>
<filter id="filter0_d_498_252" x="0" y="0" width="40" height="40" filterUnits="userSpaceOnUse" color-interpolation-filters="sRGB">
<feFlood flood-opacity="0" result="BackgroundImageFix"/>
<feColorMatrix in="SourceAlpha" type="matrix" values="0 0 0 0 0 0 0 0 0 0 0 0 0 0 0 0 0 0 127 0" result="hardAlpha"/>
<feOffset dy="4"/>
<feGaussianBlur stdDeviation="2"/>
<feComposite in2="hardAlpha" operator="out"/>
<feColorMatrix type="matrix" values="0 0 0 0 0 0 0 0 0 0 0 0 0 0 0 0 0 0 0.25 0"/>
<feBlend mode="normal" in2="BackgroundImageFix" result="effect1_dropShadow_498_252"/>
<feBlend mode="normal" in="SourceGraphic" in2="effect1_dropShadow_498_252" result="shape"/>
</filter>
</defs>
</svg>
