<svg width="40" height="40" viewBox="0 0 40 40" fill="none" xmlns="http://www.w3.org/2000/svg">
<path d="M20.005 35C17.9317 35 15.9817 34.6067 14.155 33.82C12.3294 33.0322 10.7411 31.9633 9.39 30.6133C8.03889 29.2633 6.96944 27.6767 6.18167 25.8533C5.39389 24.03 5 22.0806 5 20.005C5 17.9294 5.39389 15.9794 6.18167 14.155C6.96833 12.3294 8.03556 10.7411 9.38333 9.39C10.7311 8.03889 12.3183 6.96944 14.145 6.18167C15.9717 5.39389 17.9217 5 19.995 5C22.0683 5 24.0183 5.39389 25.845 6.18167C27.6706 6.96833 29.2589 8.03611 30.61 9.385C31.9611 10.7339 33.0306 12.3211 33.8183 14.1467C34.6061 15.9722 35 17.9217 35 19.995C35 22.0683 34.6067 24.0183 33.82 25.845C33.0333 27.6717 31.9644 29.26 30.6133 30.61C29.2622 31.96 27.6756 33.0294 25.8533 33.8183C24.0311 34.6072 22.0817 35.0011 20.005 35Z" fill="white"/>
</svg>
