<svg width="100" height="100" viewBox="0 0 100 100" fill="none" xmlns="http://www.w3.org/2000/svg">
<path d="M70.8337 75C66.2087 75 62.5003 78.7083 62.5003 83.3333C62.5003 85.5435 63.3783 87.6631 64.9411 89.2259C66.5039 90.7887 68.6235 91.6667 70.8337 91.6667C73.0438 91.6667 75.1634 90.7887 76.7262 89.2259C78.289 87.6631 79.167 85.5435 79.167 83.3333C79.167 81.1232 78.289 79.0036 76.7262 77.4408C75.1634 75.878 73.0438 75 70.8337 75ZM4.16699 8.33334V16.6667H12.5003L27.5003 48.2917L21.8337 58.5C21.2087 59.6667 20.8337 61.0417 20.8337 62.5C20.8337 64.7101 21.7116 66.8298 23.2744 68.3926C24.8372 69.9554 26.9569 70.8333 29.167 70.8333H79.167V62.5H30.917C30.6407 62.5 30.3758 62.3903 30.1804 62.1949C29.9851 61.9996 29.8753 61.7346 29.8753 61.4583C29.8753 61.25 29.917 61.0833 30.0003 60.9583L33.7503 54.1667H64.792C67.917 54.1667 70.667 52.4167 72.0837 49.875L87.0003 22.9167C87.292 22.25 87.5003 21.5417 87.5003 20.8333C87.5003 19.7283 87.0613 18.6685 86.2799 17.8871C85.4985 17.1057 84.4387 16.6667 83.3337 16.6667H21.7087L17.792 8.33334M29.167 75C24.542 75 20.8337 78.7083 20.8337 83.3333C20.8337 85.5435 21.7116 87.6631 23.2744 89.2259C24.8372 90.7887 26.9569 91.6667 29.167 91.6667C31.3771 91.6667 33.4967 90.7887 35.0595 89.2259C36.6223 87.6631 37.5003 85.5435 37.5003 83.3333C37.5003 81.1232 36.6223 79.0036 35.0595 77.4408C33.4967 75.878 31.3771 75 29.167 75Z" fill="#FF9689"/>
</svg>
