<svg width="60" height="62" viewBox="0 0 60 62" fill="none" xmlns="http://www.w3.org/2000/svg">
<path d="M48.975 17.362C46.4829 16.8067 44.2285 15.4655 42.5352 13.5311C40.8419 11.5966 39.7969 9.16832 39.55 6.5946V5.47986H30.925V40.113C30.9267 41.6497 30.4513 43.148 29.5661 44.3957C28.6809 45.6434 27.4307 46.5772 25.9927 47.0649C24.5546 47.5525 23.0016 47.5693 21.5537 47.1127C20.1057 46.6562 18.8362 45.7496 17.925 44.5213C17.1086 43.434 16.6087 42.1369 16.4818 40.7767C16.3549 39.4166 16.6061 38.0475 17.2069 36.8245C17.8078 35.6014 18.7343 34.5731 19.8818 33.8558C21.0292 33.1386 22.3518 32.761 23.7 32.7658C24.4456 32.7615 25.1875 32.8725 25.9 33.0951V24.2278C25.0708 24.1238 24.2353 24.0814 23.4 24.1012C20.3233 24.1845 17.3373 25.1752 14.8077 26.9521C12.2781 28.7289 10.3147 31.2147 9.15794 34.1051C8.00115 36.9955 7.70119 40.165 8.29479 43.2255C8.88838 46.2861 10.3498 49.1047 12.5 51.3364C14.7037 53.607 17.5237 55.1624 20.6017 55.805C23.6797 56.4477 26.8768 56.1485 29.7866 54.9456C32.6965 53.7427 35.1878 51.6904 36.9441 49.0493C38.7003 46.4083 39.6422 43.2977 39.65 40.113V22.3784C43.1286 24.8966 47.3 26.2436 51.575 26.2293V17.6154C50.7353 17.6189 49.8974 17.534 49.075 17.362H48.975Z" fill="white"/>
</svg>
