<svg width="60" height="62" viewBox="0 0 60 62" fill="none" xmlns="http://www.w3.org/2000/svg">
<path d="M42.5 9.28015C42.5 8.94418 42.3683 8.62198 42.1339 8.38442C41.8995 8.14685 41.5815 8.01339 41.25 8.01339H35C31.8528 7.85452 28.7715 8.96445 26.4293 11.1007C24.0871 13.2369 22.6745 16.2258 22.5 19.4142V26.2547H16.25C15.9185 26.2547 15.6005 26.3881 15.3661 26.6257C15.1317 26.8633 15 27.1855 15 27.5214V34.1086C15 34.4445 15.1317 34.7667 15.3661 35.0043C15.6005 35.2419 15.9185 35.3753 16.25 35.3753H22.5V52.3499C22.5 52.6858 22.6317 53.008 22.8661 53.2456C23.1005 53.4832 23.4185 53.6166 23.75 53.6166H31.25C31.5815 53.6166 31.8995 53.4832 32.1339 53.2456C32.3683 53.008 32.5 52.6858 32.5 52.3499V35.3753H39.05C39.328 35.3794 39.5993 35.2894 39.8212 35.1196C40.0431 34.9499 40.2027 34.71 40.275 34.4379L42.075 27.8508C42.1247 27.6636 42.1314 27.4674 42.0945 27.2772C42.0577 27.087 41.9782 26.9079 41.8623 26.7537C41.7464 26.5995 41.5971 26.4744 41.4259 26.3878C41.2547 26.3013 41.0663 26.2558 40.875 26.2547H32.5V19.4142C32.5622 18.7871 32.8528 18.206 33.3151 17.7844C33.7773 17.3627 34.3781 17.1309 35 17.134H41.25C41.5815 17.134 41.8995 17.0006 42.1339 16.763C42.3683 16.5254 42.5 16.2032 42.5 15.8673V9.28015Z" fill="white"/>
</svg>
