<svg width="80" height="80" viewBox="0 0 80 80" fill="none" xmlns="http://www.w3.org/2000/svg">
<path fill-rule="evenodd" clip-rule="evenodd" d="M14.2857 51.4286C15.4224 51.4286 16.5124 51.8801 17.3162 52.6838C18.1199 53.4876 18.5714 54.5776 18.5714 55.7143C18.5714 56.8509 18.1199 57.941 17.3162 58.7447C16.5124 59.5485 15.4224 60 14.2857 60C13.1491 60 12.059 59.5485 11.2553 58.7447C10.4515 57.941 10 56.8509 10 55.7143C10 54.5776 10.4515 53.4876 11.2553 52.6838C12.059 51.8801 13.1491 51.4286 14.2857 51.4286ZM65.7114 52.8571C67.2914 52.8571 68.5714 54.1257 68.5714 55.7143C68.5714 57.2929 67.3 58.5714 65.7114 58.5714H25.7171C25.3415 58.5726 24.9693 58.4995 24.622 58.3563C24.2747 58.2132 23.9591 58.0028 23.6933 57.7373C23.4275 57.4718 23.2169 57.1564 23.0734 56.8092C22.9299 56.4621 22.8564 56.09 22.8571 55.7143C22.8571 54.1357 24.1286 52.8571 25.7171 52.8571H65.7114ZM14.2857 37.1429C15.4224 37.1429 16.5124 37.5944 17.3162 38.3981C18.1199 39.2018 18.5714 40.2919 18.5714 41.4286C18.5714 42.5652 18.1199 43.6553 17.3162 44.459C16.5124 45.2628 15.4224 45.7143 14.2857 45.7143C13.1491 45.7143 12.059 45.2628 11.2553 44.459C10.4515 43.6553 10 42.5652 10 41.4286C10 40.2919 10.4515 39.2018 11.2553 38.3981C12.059 37.5944 13.1491 37.1429 14.2857 37.1429ZM65.7114 38.5714C67.2914 38.5714 68.5714 39.84 68.5714 41.4286C68.5714 43.0071 67.3 44.2857 65.7114 44.2857H25.7171C25.3415 44.2868 24.9693 44.2137 24.622 44.0706C24.2747 43.9274 23.9591 43.7171 23.6933 43.4516C23.4275 43.1861 23.2169 42.8707 23.0734 42.5235C22.9299 42.1763 22.8564 41.8042 22.8571 41.4286C22.8571 39.85 24.1286 38.5714 25.7171 38.5714H65.7114ZM14.2857 22.8571C15.4224 22.8571 16.5124 23.3087 17.3162 24.1124C18.1199 24.9161 18.5714 26.0062 18.5714 27.1429C18.5714 28.2795 18.1199 29.3696 17.3162 30.1733C16.5124 30.977 15.4224 31.4286 14.2857 31.4286C13.1491 31.4286 12.059 30.977 11.2553 30.1733C10.4515 29.3696 10 28.2795 10 27.1429C10 26.0062 10.4515 24.9161 11.2553 24.1124C12.059 23.3087 13.1491 22.8571 14.2857 22.8571ZM65.7114 24.2857C67.2914 24.2857 68.5714 25.5543 68.5714 27.1429C68.5714 28.7214 67.3 30 65.7114 30H25.7171C25.3415 30.0011 24.9693 29.928 24.622 29.7849C24.2747 29.6417 23.9591 29.4314 23.6933 29.1659C23.4275 28.9004 23.2169 28.585 23.0734 28.2378C22.9299 27.8906 22.8564 27.5185 22.8571 27.1429C22.8571 25.5643 24.1286 24.2857 25.7171 24.2857H65.7114Z" fill="white"/>
</svg>
