<svg width="285" height="117" viewBox="0 0 285 117" fill="none" xmlns="http://www.w3.org/2000/svg">
<path d="M56.35 80.2C52.05 79.8 47.6 79.25 43 78.55C38.5 77.75 34.25 76.8 30.25 75.7C30.05 75.6 29.6 75.45 28.9 75.25C28.2 75.05 27.85 74.85 27.85 74.65C27.85 74.35 28.2 74.15 28.9 74.05C29.6 73.95 30.05 73.9 30.25 73.9C32.25 73.7 34.8 73.6 37.9 73.6C41 73.5 43.55 73.6 45.55 73.9C47.45 74.2 49.65 74.45 52.15 74.65C54.75 74.85 57.35 74.9 59.95 74.8C62.55 74.7 65.05 74.45 67.45 74.05C69.95 73.65 72.1 73.05 73.9 72.25C74.7 71.95 75.6 71.35 76.6 70.45C77.6 69.55 78.35 68.65 78.85 67.75C75.65 69.85 72.1 71.15 68.2 71.65C64.3 72.15 60.2 72.25 55.9 71.95C51.7 71.65 47.4 71.2 43 70.6C38.7 70 34.45 69.6 30.25 69.4C27.55 69.3 24.75 69.4 21.85 69.7C19.05 70 16.3 70.6 13.6 71.5C11 72.4 8.6 73.6 6.4 75.1C4.2 76.6 2.4 78.45 1 80.65C0.8 81.15 0.75 81.25 0.85 80.95C0.85 80.55 0.85 80.25 0.85 80.05C1.65 76.05 3.5 73.05 6.4 71.05C9.4 68.95 12.65 67.35 16.15 66.25C17.45 60.85 18.95 55.5 20.65 50.2C22.35 44.9 23.9 39.75 25.3 34.75C26.8 29.75 28 24.9 28.9 20.2C29.9 15.5 30.35 10.95 30.25 6.54999C30.35 6.35 30.35 6.14999 30.25 5.94999C30.25 5.74999 30.35 5.65 30.55 5.65C30.75 5.55 30.85 5.7 30.85 6.1C30.95 6.39999 31 6.59999 31 6.69999C32.3 11.1 32.8 15.7 32.5 20.5C32.2 25.2 31.45 30 30.25 34.9C29.15 39.8 27.75 44.8 26.05 49.9C24.45 54.9 22.95 59.95 21.55 65.05L25.45 64.6C25.95 62.3 26.45 59.95 26.95 57.55C27.55 55.15 28.15 53.05 28.75 51.25C28.95 50.65 29.25 49.45 29.65 47.65C30.15 45.75 30.65 43.5 31.15 40.9C31.65 38.3 32.15 35.5 32.65 32.5C33.25 29.5 33.7 26.6 34 23.8C34.4 21 34.6 18.45 34.6 16.15C34.7 13.85 34.6 12.05 34.3 10.75C34.3 9.84999 34.35 9.39999 34.45 9.39999C34.65 9.39999 34.85 9.54999 35.05 9.84999C35.25 10.05 35.4 10.25 35.5 10.45C36.6 12.15 37.4 14.2 37.9 16.6C38.5 19 38.85 21.55 38.95 24.25C39.15 26.85 39.1 29.45 38.8 32.05C38.6 34.65 38.25 36.9 37.75 38.8C36.55 43 35.25 47.3 33.85 51.7C32.45 56.1 30.95 60.4 29.35 64.6H31.9H32.65C33.05 62.9 33.55 61.2 34.15 59.5C34.75 57.8 35.3 56.1 35.8 54.4C37.1 49.7 38.4 44.9 39.7 40C41 35 41.75 29.65 41.95 23.95C41.95 23.45 42 23.2 42.1 23.2C42.3 23.2 42.4 23.3 42.4 23.5C42.5 23.7 42.6 23.9 42.7 24.1C43.6 26.3 44 29.1 43.9 32.5C43.9 35.9 43.6 39.5 43 43.3C42.4 47 41.6 50.8 40.6 54.7C39.7 58.5 38.85 61.95 38.05 65.05C41.75 65.35 45.3 65.75 48.7 66.25C52.2 66.75 55.7 67.2 59.2 67.6C60.5 62.2 61.95 56.9 63.55 51.7C65.25 46.4 66.8 41.3 68.2 36.4C69.7 31.4 70.9 26.55 71.8 21.85C72.8 17.15 73.25 12.65 73.15 8.35C73.15 7.85 73.25 7.6 73.45 7.6C73.65 7.6 73.8 7.7 73.9 7.89999C74 8.1 74.05 8.25 74.05 8.35C75.35 12.85 75.8 17.55 75.4 22.45C75.1 27.25 74.35 32.15 73.15 37.15C71.95 42.15 70.5 47.25 68.8 52.45C67.1 57.55 65.55 62.7 64.15 67.9C64.75 68.1 65.35 68.15 65.95 68.05C66.65 67.95 67.35 67.9 68.05 67.9C68.45 65.4 69 62.85 69.7 60.25C70.4 57.55 71.05 55.25 71.65 53.35C71.85 52.75 72.15 51.55 72.55 49.75C73.05 47.85 73.55 45.6 74.05 43C74.55 40.4 75.05 37.6 75.55 34.6C76.15 31.6 76.6 28.7 76.9 25.9C77.3 23 77.5 20.4 77.5 18.1C77.6 15.8 77.5 14 77.2 12.7C77 12 77.05 11.6 77.35 11.5C77.55 11.4 77.75 11.5 77.95 11.8C78.15 12 78.3 12.2 78.4 12.4C79.5 14.1 80.35 16.15 80.95 18.55C81.55 20.95 81.9 23.45 82 26.05C82.2 28.65 82.15 31.25 81.85 33.85C81.65 36.45 81.3 38.7 80.8 40.6C79.6 45.1 78.2 49.65 76.6 54.25C75 58.85 73.35 63.4 71.65 67.9L75.4 67.3C75.9 65.6 76.45 63.85 77.05 62.05C77.65 60.15 78.2 58.3 78.7 56.5C80.1 51.7 81.4 46.85 82.6 41.95C83.9 36.95 84.65 31.65 84.85 26.05C84.85 25.55 84.85 25.3 84.85 25.3C84.85 25.2 84.9 25.15 85 25.15C85.2 25.15 85.4 25.45 85.6 26.05C86.8 28.75 87.25 32.25 86.95 36.55C86.65 40.85 86.05 45.35 85.15 50.05C84.25 54.65 83.2 59.15 82 63.55C80.8 67.85 79.9 71.3 79.3 73.9C78.2 78.7 76.8 83.65 75.1 88.75C73.4 93.85 71.9 98.3 70.6 102.1C70.3 103.3 69.9 103.9 69.4 103.9C69.2 103.8 69.1 103.5 69.1 103C69.2 102.5 69.25 102 69.25 101.5C69.45 97.2 69.85 92.95 70.45 88.75C71.15 84.45 72.05 80.05 73.15 75.55C70.65 77.25 67.8 78.5 64.6 79.3C61.4 80.1 58.65 80.4 56.35 80.2ZM26.35 99.55C26.55 94.75 27 90.05 27.7 85.45C26 85.25 24.3 85.05 22.6 84.85C21 84.55 19.4 84.25 17.8 83.95C17.4 89.35 17.55 94.7 18.25 100C18.95 105.2 20.45 110 22.75 114.4C22.95 114.8 23.05 115 23.05 115C23.05 115.5 22.75 115.5 22.15 115C18.15 110.6 15.55 105.7 14.35 100.3C13.25 94.8 12.9 89.15 13.3 83.35L10 82.75C9.5 82.75 9.05 82.65 8.65 82.45C8.35 82.25 8.2 82.05 8.2 81.85C8.2 81.65 8.4 81.5 8.8 81.4C9.2 81.3 9.55 81.2 9.85 81.1C15.55 79.9 21.25 79.45 26.95 79.75C32.65 80.05 38.45 80.55 44.35 81.25C48.05 81.65 51.8 82 55.6 82.3C59.4 82.6 63.4 82.25 67.6 81.25C68 81.15 68.25 81.2 68.35 81.4C68.35 81.5 68.15 81.75 67.75 82.15C66.05 83.75 63.75 84.85 60.85 85.45C60.35 90.85 60.4 96.2 61 101.5C61.6 106.7 63.1 111.2 65.5 115C65.8 115.3 65.8 115.45 65.5 115.45C65.4 115.45 65.3 115.4 65.2 115.3C65.1 115.2 64.95 115.1 64.75 115C62.85 113.4 61.3 111.55 60.1 109.45C59 107.25 58.15 104.9 57.55 102.4C56.95 99.9 56.55 97.3 56.35 94.6C56.25 91.8 56.25 89 56.35 86.2C54.25 86.4 52.1 86.5 49.9 86.5C47.7 86.5 45.55 86.45 43.45 86.35C41.35 86.25 39.35 86.15 37.45 86.05C35.55 85.85 33.9 85.7 32.5 85.6C31.7 88.3 30.85 90.9 29.95 93.4C29.05 95.8 28.3 98 27.7 100C27.5 100.5 27.3 101 27.1 101.5C26.9 101.9 26.7 102 26.5 101.8C26.3 101.8 26.2 101.55 26.2 101.05C26.3 100.55 26.35 100.05 26.35 99.55ZM67.3 106.3C67.8 108.2 68.25 109.9 68.65 111.4C69.05 112.9 69.6 114.1 70.3 115C70.4 115.1 70.5 115.2 70.6 115.3C70.7 115.5 70.65 115.65 70.45 115.75C70.05 115.75 69.5 115.5 68.8 115C67.7 114.2 66.7 113.3 65.8 112.3C65 111.3 64.35 109.3 63.85 106.3C63.65 105.1 63.55 103.65 63.55 101.95C63.55 100.25 63.6 98.65 63.7 97.15C63.8 95.55 63.95 94.2 64.15 93.1C64.45 92 64.75 91.5 65.05 91.6C65.25 91.6 65.4 91.85 65.5 92.35C65.6 92.85 65.7 93.4 65.8 94C65.9 94.6 65.95 95.2 65.95 95.8C66.05 96.4 66.1 96.85 66.1 97.15C66.3 98.85 66.45 100.45 66.55 101.95C66.75 103.45 67 104.9 67.3 106.3ZM24.4 104.35C25 107.95 25.95 111.3 27.25 114.4C27.45 115.1 27.5 115.45 27.4 115.45C26.9 115.45 26.35 115.15 25.75 114.55C24.45 113.05 23.45 111.7 22.75 110.5C22.15 109.3 21.6 107.25 21.1 104.35C20.9 103.25 20.75 101.85 20.65 100.15C20.65 98.45 20.7 96.8 20.8 95.2C20.9 93.6 21.05 92.25 21.25 91.15C21.55 90.05 21.85 89.5 22.15 89.5C22.25 89.5 22.35 89.75 22.45 90.25C22.65 90.75 22.8 91.35 22.9 92.05C23 92.65 23.1 93.3 23.2 94C23.3 94.6 23.35 95 23.35 95.2C23.55 96.9 23.7 98.5 23.8 100C24 101.5 24.2 102.95 24.4 104.35ZM6.1 80.2C4.8 80.9 3.9 81.5 3.4 82C2.9 82.5 2.3 83.15 1.6 83.95C1.2 84.45 1 84.6 1 84.4C1 84.2 1 83.95 1 83.65C1.4 82.15 1.9 80.95 2.5 80.05C3.1 79.15 4.1 78.15 5.5 77.05C6.2 76.45 7.15 75.95 8.35 75.55C9.65 75.15 10.9 74.9 12.1 74.8C13.3 74.6 14.35 74.55 15.25 74.65C16.15 74.65 16.6 74.8 16.6 75.1C16.6 75.4 16 75.8 14.8 76.3C13.7 76.8 13 77.15 12.7 77.35C11.5 77.85 10.35 78.35 9.25 78.85C8.15 79.25 7.1 79.7 6.1 80.2ZM137.093 73.45C137.393 70.75 137.443 67.9 137.243 64.9C137.043 61.9 136.393 59.15 135.293 56.65C134.293 54.05 132.693 51.9 130.493 50.2C128.393 48.5 125.593 47.65 122.093 47.65C117.393 47.65 113.293 48.95 109.793 51.55C106.293 54.05 103.293 57.2 100.793 61C98.2934 64.7 96.3434 68.7 94.9434 73C93.5434 77.2 92.6434 81.05 92.2434 84.55C91.6434 89.35 91.5434 93.5 91.9434 97C92.4434 100.5 93.2934 103.4 94.4934 105.7C95.6934 107.9 97.1934 109.55 98.9934 110.65C100.893 111.75 102.943 112.3 105.143 112.3C108.243 112.4 111.493 111.55 114.893 109.75C118.393 107.85 121.643 105.25 124.643 101.95C127.643 98.55 130.243 94.45 132.443 89.65C134.743 84.75 136.293 79.35 137.093 73.45ZM88.7934 83.8C89.1934 79.8 90.1934 75.4 91.7934 70.6C93.3934 65.8 95.5934 61.35 98.3934 57.25C101.293 53.15 104.743 49.75 108.743 47.05C112.743 44.25 117.393 42.85 122.693 42.85C126.693 42.85 129.993 43.8 132.593 45.7C135.193 47.6 137.193 50.05 138.593 53.05C139.993 55.95 140.893 59.15 141.293 62.65C141.693 66.05 141.693 69.3 141.293 72.4C140.393 79.6 138.643 85.85 136.043 91.15C133.443 96.45 130.393 100.9 126.893 104.5C123.393 108 119.693 110.65 115.793 112.45C111.893 114.15 108.143 115 104.543 115C101.843 115 99.3934 114.4 97.1934 113.2C95.0934 112 93.2934 110.15 91.7934 107.65C90.3934 105.05 89.3934 101.8 88.7934 97.9C88.2934 93.9 88.2934 89.2 88.7934 83.8ZM105.593 104.95C105.093 104.95 104.593 104.8 104.093 104.5C103.593 104.1 103.193 103.65 102.893 103.15C102.593 102.65 102.393 102.15 102.293 101.65C102.193 101.15 102.393 100.8 102.893 100.6C103.193 100.5 103.593 100.85 104.093 101.65C104.593 102.45 105.143 102.85 105.743 102.85C106.743 102.85 107.893 102.2 109.193 100.9C110.593 99.6 111.893 98.1 113.093 96.4C114.393 94.6 115.493 92.85 116.393 91.15C117.393 89.45 118.093 88.2 118.493 87.4C118.893 86.6 119.293 85.6 119.693 84.4C120.093 83.1 120.443 81.8 120.743 80.5C121.143 79.2 121.443 77.95 121.643 76.75C121.943 75.45 122.143 74.35 122.243 73.45C122.743 68.95 122.643 65.5 121.943 63.1C121.243 60.6 120.093 59.35 118.493 59.35C117.293 59.35 116.043 59.75 114.743 60.55C113.443 61.25 112.193 62.2 110.993 63.4C109.893 64.6 108.893 65.95 107.993 67.45C107.093 68.85 106.443 70.3 106.043 71.8C105.543 73.5 105.193 74.35 104.993 74.35C104.693 74.35 104.543 73.5 104.543 71.8C104.843 69.9 105.493 68.05 106.493 66.25C107.493 64.35 108.743 62.7 110.243 61.3C111.743 59.8 113.393 58.6 115.193 57.7C116.993 56.7 118.843 56.2 120.743 56.2C122.643 56.2 124.043 56.9 124.943 58.3C125.943 59.6 126.643 61.25 127.043 63.25C127.443 65.15 127.593 67.15 127.493 69.25C127.493 71.25 127.393 72.85 127.193 74.05C126.793 76.75 126.143 79.4 125.243 82C124.443 84.5 123.443 87.05 122.243 89.65C121.643 90.85 120.743 92.35 119.543 94.15C118.343 95.85 116.943 97.5 115.343 99.1C113.843 100.7 112.193 102.1 110.393 103.3C108.693 104.4 107.093 104.95 105.593 104.95ZM110.393 107.8C110.493 108.4 109.993 108.9 108.893 109.3C107.893 109.7 106.843 109.9 105.743 109.9C102.643 109.8 100.243 108.8 98.5434 106.9C96.9434 105 95.7934 102.75 95.0934 100.15C94.4934 97.55 94.1934 94.85 94.1934 92.05C94.2934 89.25 94.4434 86.9 94.6434 85C95.0434 81.7 95.8434 78 97.0434 73.9C98.2434 69.8 99.9434 65.95 102.143 62.35C104.343 58.75 107.043 55.75 110.243 53.35C113.443 50.85 117.243 49.6 121.643 49.6C124.543 49.6 126.843 50.35 128.543 51.85C130.343 53.35 131.643 55.2 132.443 57.4C133.343 59.6 133.843 62 133.943 64.6C134.143 67.1 134.093 69.4 133.793 71.5C133.593 73.8 133.243 75.9 132.743 77.8C132.243 79.7 131.543 81.8 130.643 84.1C130.343 84.8 129.943 85.6 129.443 86.5C128.943 87.4 128.393 87.8 127.793 87.7C127.493 87.6 127.393 87.2 127.493 86.5C127.693 85.8 127.893 84.95 128.093 83.95C128.393 82.85 128.693 81.75 128.993 80.65C129.293 79.45 129.493 78.35 129.593 77.35C129.793 75.65 129.893 73.55 129.893 71.05C129.993 68.45 129.793 65.95 129.293 63.55C128.893 61.15 128.093 59.1 126.893 57.4C125.693 55.7 123.893 54.85 121.493 54.85C117.993 54.85 114.743 56 111.743 58.3C108.843 60.5 106.293 63.25 104.093 66.55C101.893 69.75 100.093 73.15 98.6934 76.75C97.3934 80.25 96.5934 83.35 96.2934 86.05C96.0934 87.65 96.0434 89.65 96.1434 92.05C96.2434 94.45 96.5934 96.85 97.1934 99.25C97.8934 101.55 98.9934 103.55 100.493 105.25C101.993 106.95 104.043 107.85 106.643 107.95C107.443 108.05 108.193 108 108.893 107.8C109.693 107.5 110.193 107.5 110.393 107.8ZM160.221 59.65C160.321 58.75 160.621 57.7 161.121 56.5C161.621 55.2 162.271 54 163.071 52.9C163.971 51.7 165.021 50.65 166.221 49.75C167.421 48.75 168.771 48.1 170.271 47.8C173.471 47.2 176.121 47.4 178.221 48.4C180.321 49.4 181.921 50.55 183.021 51.85C183.421 52.45 183.571 52.8 183.471 52.9C183.271 53.1 182.921 53.05 182.421 52.75C181.821 52.35 180.821 52 179.421 51.7C178.121 51.4 176.671 51.35 175.071 51.55C173.571 51.65 172.071 52.1 170.571 52.9C169.171 53.7 168.021 55 167.121 56.8C166.321 58.5 165.771 60.25 165.471 62.05C165.171 63.85 164.971 65.55 164.871 67.15C164.871 68.65 164.921 69.95 165.021 71.05C165.121 72.15 165.171 72.9 165.171 73.3C165.371 74.4 165.521 75.8 165.621 77.5C165.821 79.1 165.921 80.75 165.921 82.45C165.921 84.15 165.871 85.85 165.771 87.55C165.671 89.15 165.471 90.55 165.171 91.75C165.071 92.05 164.921 92.55 164.721 93.25C164.621 93.95 164.471 94.3 164.271 94.3C163.771 94.3 163.521 93.95 163.521 93.25C163.521 92.55 163.521 92.05 163.521 91.75C163.321 89.25 162.971 86.75 162.471 84.25C161.971 81.65 161.471 79 160.971 76.3C160.571 73.6 160.271 70.9 160.071 68.2C159.871 65.4 159.921 62.55 160.221 59.65ZM154.971 89.35C155.071 87.35 154.871 84.55 154.371 80.95C153.971 77.25 153.821 73 153.921 68.2C154.021 65.7 154.271 63.15 154.671 60.55C155.071 57.85 156.021 55.2 157.521 52.6C159.121 49.8 161.121 47.75 163.521 46.45C166.021 45.05 168.171 44.4 169.971 44.5C170.271 44.5 170.571 44.5 170.871 44.5C171.171 44.5 171.321 44.55 171.321 44.65C171.321 44.85 171.271 44.95 171.171 44.95C171.071 44.85 170.721 44.9 170.121 45.1C168.321 45.6 166.721 46.45 165.321 47.65C163.921 48.75 162.721 50.05 161.721 51.55C160.721 53.05 159.921 54.6 159.321 56.2C158.721 57.8 158.371 59.25 158.271 60.55C157.671 66.05 157.721 70.85 158.421 74.95C158.921 78.25 159.321 81.7 159.621 85.3C159.921 88.8 159.771 92.05 159.171 95.05C158.671 97.95 157.621 100.4 156.021 102.4C154.521 104.3 152.171 105.35 148.971 105.55C148.671 105.55 148.271 105.55 147.771 105.55C147.371 105.45 147.171 105.3 147.171 105.1C147.171 104.9 147.621 104.55 148.521 104.05C151.121 102.85 152.821 101.1 153.621 98.8C154.421 96.5 154.871 93.35 154.971 89.35ZM139.071 107.05C140.471 109.25 142.671 110.9 145.671 112C148.771 113 152.421 112.9 156.621 111.7C158.721 111.1 160.571 110.05 162.171 108.55C163.771 107.05 165.071 105.4 166.071 103.6C167.171 101.7 167.971 99.75 168.471 97.75C169.071 95.75 169.421 93.9 169.521 92.2C169.621 89.4 169.521 86.65 169.221 83.95C169.021 81.25 168.721 78.65 168.321 76.15C168.021 73.55 167.721 71.05 167.421 68.65C167.221 66.25 167.221 63.9 167.421 61.6C167.621 59.1 168.321 57.2 169.521 55.9C170.721 54.6 172.171 53.8 173.871 53.5C175.671 53.1 177.521 53.2 179.421 53.8C181.321 54.4 183.071 55.35 184.671 56.65C185.071 56.85 185.221 57.1 185.121 57.4C185.121 57.6 185.021 57.65 184.821 57.55C184.621 57.45 184.421 57.35 184.221 57.25C180.521 56.05 177.621 55.7 175.521 56.2C173.521 56.7 172.421 58.5 172.221 61.6C172.021 65.2 172.271 69.45 172.971 74.35C173.771 79.15 174.071 84.5 173.871 90.4C173.971 92.4 173.721 94.7 173.121 97.3C172.621 99.9 171.721 102.45 170.421 104.95C169.221 107.35 167.571 109.5 165.471 111.4C163.471 113.3 161.071 114.5 158.271 115C152.971 115.8 148.721 115.5 145.521 114.1C142.421 112.7 140.171 110.55 138.771 107.65C138.571 107.05 138.471 106.7 138.471 106.6H138.621C138.621 106.6 138.771 106.75 139.071 107.05ZM145.671 107.05C147.571 107.55 149.871 107.75 152.571 107.65C153.471 107.55 154.571 107.3 155.871 106.9C157.171 106.5 157.871 106.4 157.971 106.6C158.271 107 157.971 107.5 157.071 108.1C156.171 108.7 155.021 109.25 153.621 109.75C152.221 110.15 150.771 110.45 149.271 110.65C147.771 110.75 146.521 110.6 145.521 110.2C143.621 109.4 142.271 108.55 141.471 107.65C140.571 106.65 139.771 105.45 139.071 104.05L138.771 103.45C138.571 103.05 138.521 102.8 138.621 102.7C138.721 102.6 138.871 102.6 139.071 102.7C139.171 102.8 139.221 102.9 139.221 103C140.421 104.1 141.421 104.95 142.221 105.55C143.121 106.05 144.271 106.55 145.671 107.05ZM213.994 35.95C212.294 41.85 210.344 47.9 208.144 54.1C206.044 60.3 203.844 66.15 201.544 71.65C201.444 71.95 201.144 72.5 200.644 73.3C200.244 74.1 199.894 74.45 199.594 74.35C199.394 74.35 199.244 73.9 199.144 73C199.144 72 199.194 71.25 199.294 70.75C199.494 69.45 199.794 67.85 200.194 65.95C200.594 64.05 200.994 62.1 201.394 60.1C201.894 58.1 202.344 56.15 202.744 54.25C203.244 52.35 203.744 50.7 204.244 49.3C204.444 48.7 204.794 47.4 205.294 45.4C205.794 43.4 206.344 41 206.944 38.2C207.544 35.4 208.144 32.4 208.744 29.2C209.444 26 209.994 22.9 210.394 19.9C210.894 16.9 211.244 14.15 211.444 11.65C211.644 9.14999 211.594 7.24999 211.294 5.94999C210.994 4.94999 210.994 4.44999 211.294 4.44999C211.494 4.44999 211.644 4.59999 211.744 4.9C211.944 5.09999 212.144 5.29999 212.344 5.5C213.344 7.3 214.094 9.5 214.594 12.1C215.194 14.7 215.544 17.4 215.644 20.2C215.744 23 215.644 25.8 215.344 28.6C215.044 31.4 214.594 33.85 213.994 35.95ZM207.994 1.3C209.294 6.4 209.594 11.75 208.894 17.35C208.294 22.95 207.194 28.65 205.594 34.45C203.994 40.25 202.194 46.15 200.194 52.15C198.194 58.05 196.494 64 195.094 70C194.194 73.8 193.444 77.75 192.844 81.85C192.344 85.85 192.094 89.85 192.094 93.85C192.094 97.75 192.394 101.55 192.994 105.25C193.694 108.85 194.844 112.1 196.444 115C196.644 115.4 196.694 115.7 196.594 115.9C196.594 116.1 196.294 115.8 195.694 115C193.094 112 191.144 108.6 189.844 104.8C188.644 101 187.944 97 187.744 92.8C187.544 88.6 187.744 84.25 188.344 79.75C188.944 75.25 189.794 70.85 190.894 66.55C192.394 60.55 194.044 54.65 195.844 48.85C197.744 43.05 199.494 37.4 201.094 31.9C202.794 26.4 204.194 21.1 205.294 16C206.394 10.8 206.944 5.8 206.944 0.999992C206.944 0.499993 206.994 0.249993 207.094 0.249993C207.494 0.249993 207.794 0.599995 207.994 1.3ZM235.294 115C231.594 113.3 228.644 110.65 226.444 107.05C224.244 103.45 222.894 99.3 222.394 94.6C221.894 90 221.894 86.2 222.394 83.2C222.894 80.1 223.494 77.05 224.194 74.05C224.294 73.65 224.494 73 224.794 72.1C225.094 71.1 225.294 70.1 225.394 69.1C225.594 68.1 225.594 67.25 225.394 66.55C225.294 65.75 224.894 65.25 224.194 65.05C222.794 64.75 221.194 65.4 219.394 67C217.594 68.5 215.844 70.4 214.144 72.7C212.544 75 211.044 77.4 209.644 79.9C208.344 82.3 207.494 84.2 207.094 85.6C206.194 88.5 205.244 91.25 204.244 93.85C203.244 96.45 202.344 99.05 201.544 101.65C201.244 102.75 200.994 103.25 200.794 103.15C200.594 103.15 200.444 102.95 200.344 102.55C200.344 102.15 200.344 101.7 200.344 101.2C200.344 97.2 200.644 93.2 201.244 89.2C201.844 85.1 202.644 81.05 203.644 77.05C204.744 73.05 205.944 69.05 207.244 65.05C208.544 61.05 209.794 57 210.994 52.9C212.594 47.8 214.094 42.6 215.494 37.3C216.994 32 217.994 26.3 218.494 20.2C218.494 19.7 218.494 19.45 218.494 19.45C218.494 19.35 218.544 19.3 218.644 19.3C218.944 19.3 219.194 19.7 219.394 20.5C219.894 21.8 220.094 23.65 219.994 26.05C219.994 28.35 219.794 30.9 219.394 33.7C219.094 36.5 218.594 39.35 217.894 42.25C217.294 45.15 216.644 47.75 215.944 50.05C217.844 48.05 220.094 46.5 222.694 45.4C225.294 44.3 228.394 44 231.994 44.5C236.094 45.1 239.244 46.6 241.444 49C243.644 51.3 245.144 54.1 245.944 57.4C246.744 60.7 246.944 64.25 246.544 68.05C246.244 71.75 245.644 75.35 244.744 78.85C243.944 81.55 243.194 83.95 242.494 86.05C241.794 88.05 241.094 89.9 240.394 91.6C239.694 93.3 239.094 94.9 238.594 96.4C238.094 97.9 237.694 99.5 237.394 101.2C237.194 102.3 236.994 102.85 236.794 102.85C236.594 102.85 236.394 102.65 236.194 102.25C236.094 101.85 235.994 101.45 235.894 101.05C235.294 98.85 235.244 96.15 235.744 92.95C236.344 89.75 237.094 86.4 237.994 82.9C238.894 79.3 239.694 75.7 240.394 72.1C241.194 68.4 241.494 65 241.294 61.9C241.194 58.8 240.394 56.1 238.894 53.8C237.394 51.4 234.844 49.75 231.244 48.85C229.744 48.45 228.094 48.35 226.294 48.55C224.594 48.65 222.944 49.05 221.344 49.75C219.844 50.35 218.494 51.25 217.294 52.45C216.094 53.65 215.294 55.05 214.894 56.65C216.794 54.65 219.244 53 222.244 51.7C225.244 50.4 228.144 50.2 230.944 51.1C233.544 51.9 235.394 53.35 236.494 55.45C237.594 57.55 238.244 59.4 238.444 61C238.844 64.5 238.594 67.7 237.694 70.6C236.894 73.4 235.944 76.1 234.844 78.7C234.644 79 234.344 79.5 233.944 80.2C233.544 80.8 233.244 81.05 233.044 80.95C232.844 80.95 232.744 80.55 232.744 79.75C232.744 78.95 232.794 78.35 232.894 77.95C233.194 76.95 233.444 75.4 233.644 73.3C233.844 71.1 233.894 68.85 233.794 66.55C233.794 64.25 233.494 62.1 232.894 60.1C232.394 58.1 231.544 56.75 230.344 56.05C228.944 55.25 227.244 55.05 225.244 55.45C223.244 55.75 221.094 56.95 218.794 59.05C216.794 60.85 215.094 62.95 213.694 65.35C212.294 67.65 211.094 70.7 210.094 74.5C210.694 73.4 211.644 71.85 212.944 69.85C214.244 67.85 215.694 65.95 217.294 64.15C218.994 62.35 220.744 60.95 222.544 59.95C224.444 58.85 226.244 58.7 227.944 59.5C229.044 60.1 229.744 61.15 230.044 62.65C230.444 64.05 230.544 65.65 230.344 67.45C230.244 69.25 229.994 71 229.594 72.7C229.194 74.4 228.844 75.75 228.544 76.75C227.444 79.75 226.694 83.05 226.294 86.65C225.894 90.15 225.894 93.6 226.294 97C226.794 100.4 227.794 103.6 229.294 106.6C230.794 109.6 232.994 112.15 235.894 114.25C236.794 114.75 236.944 115 236.344 115C235.844 115 235.494 115 235.294 115ZM239.194 113.8C237.794 113 236.444 112.15 235.144 111.25C233.944 110.35 232.744 108.6 231.544 106C231.044 105 230.644 103.65 230.344 101.95C230.144 100.25 229.994 98.65 229.894 97.15C229.894 95.55 229.994 94.25 230.194 93.25C230.394 92.15 230.644 91.65 230.944 91.75C231.144 91.75 231.344 92 231.544 92.5C231.744 92.9 231.894 93.4 231.994 94C232.094 94.6 232.194 95.2 232.294 95.8C232.394 96.3 232.444 96.65 232.444 96.85C232.844 99.05 233.194 100.7 233.494 101.8C233.794 102.8 234.194 103.9 234.694 105.1C235.494 106.7 236.294 108.15 237.094 109.45C237.894 110.75 238.894 111.95 240.094 113.05C240.594 113.45 240.694 113.75 240.394 113.95C240.194 114.15 239.794 114.1 239.194 113.8ZM201.244 115C201.344 115 201.244 115.05 200.944 115.15C200.744 115.25 200.294 115.2 199.594 115C198.794 114.6 197.944 113.85 197.044 112.75C196.244 111.65 195.594 109.5 195.094 106.3C194.894 105 194.794 103.45 194.794 101.65C194.794 99.75 194.844 98 194.944 96.4C195.144 94.7 195.394 93.25 195.694 92.05C195.994 90.85 196.344 90.3 196.744 90.4C196.844 90.4 196.944 90.7 197.044 91.3C197.144 91.9 197.244 92.6 197.344 93.4C197.444 94.1 197.494 94.85 197.494 95.65C197.494 96.35 197.494 96.85 197.494 97.15C197.594 99.35 197.694 101 197.794 102.1C197.994 103.1 198.244 104.5 198.544 106.3C198.844 108.2 199.194 109.95 199.594 111.55C199.994 113.05 200.544 114.2 201.244 115ZM272.283 65.5C271.183 69.2 269.783 72.95 268.083 76.75C266.483 80.55 264.783 84.05 262.983 87.25C262.783 87.45 262.533 87.8 262.233 88.3C261.933 88.8 261.733 89.05 261.633 89.05C261.333 88.95 261.183 88.6 261.183 88C261.183 87.4 261.233 87 261.333 86.8C261.333 85.1 261.583 82.9 262.083 80.2C262.683 77.5 263.333 75.25 264.033 73.45C264.133 72.95 264.433 71.55 264.933 69.25C265.533 66.85 266.083 64.2 266.583 61.3C267.083 58.3 267.383 55.45 267.483 52.75C267.683 49.95 267.483 47.9 266.883 46.6C266.483 46 266.483 45.7 266.883 45.7C266.983 45.7 267.333 45.9 267.933 46.3C269.133 47.5 270.083 48.95 270.783 50.65C271.583 52.25 272.133 53.95 272.433 55.75C272.733 57.55 272.833 59.3 272.733 61C272.733 62.7 272.583 64.2 272.283 65.5ZM272.883 88.15C271.983 91.35 270.883 94.6 269.583 97.9C268.283 101.1 267.133 103.9 266.133 106.3C265.933 106.7 265.783 107 265.683 107.2C265.583 107.4 265.433 107.5 265.233 107.5C264.933 107.5 264.733 107.35 264.633 107.05C264.633 106.65 264.633 106.3 264.633 106C264.433 100.9 265.033 95.95 266.433 91.15C267.833 86.25 269.383 81.25 271.083 76.15C272.083 73.05 272.983 69.9 273.783 66.7C274.683 63.4 275.133 59.85 275.133 56.05C275.033 55.65 275.083 55.45 275.283 55.45C275.483 55.45 275.783 55.65 276.183 56.05C277.383 57.95 277.983 60.4 277.983 63.4C277.983 66.3 277.683 69.3 277.083 72.4C276.483 75.4 275.733 78.35 274.833 81.25C273.933 84.05 273.283 86.35 272.883 88.15ZM262.233 115C262.633 115.4 262.683 115.55 262.383 115.45C262.083 115.45 261.833 115.35 261.633 115.15C258.633 113.05 256.333 110.75 254.733 108.25C253.133 105.75 252.033 103.15 251.433 100.45C250.833 97.65 250.633 94.85 250.833 92.05C251.133 89.25 251.633 86.5 252.333 83.8C253.233 80.1 254.333 76.5 255.633 73C257.033 69.4 258.283 65.95 259.383 62.65C260.483 59.25 261.383 55.95 262.083 52.75C262.783 49.55 262.983 46.45 262.683 43.45C262.583 43.35 262.533 43.25 262.533 43.15C262.533 42.95 262.583 42.85 262.683 42.85C262.783 42.85 262.983 43.1 263.283 43.6C264.883 46.9 265.583 50.3 265.383 53.8C265.283 57.2 264.733 60.7 263.733 64.3C262.733 67.8 261.533 71.35 260.133 74.95C258.733 78.55 257.583 82.15 256.683 85.75C256.083 88.05 255.683 90.5 255.483 93.1C255.283 95.7 255.383 98.3 255.783 100.9C256.183 103.4 256.883 105.9 257.883 108.4C258.883 110.8 260.333 113 262.233 115ZM263.433 109.3C263.833 110.5 264.283 111.55 264.783 112.45C265.383 113.35 266.033 114.2 266.733 115C266.833 115 266.883 115.05 266.883 115.15C266.983 115.35 266.983 115.45 266.883 115.45C266.583 115.45 266.133 115.3 265.533 115C264.133 114.5 262.983 113.85 262.083 113.05C261.283 112.25 260.583 110.85 259.983 108.85C259.683 108.05 259.433 107.1 259.233 106C259.133 104.8 259.083 103.7 259.083 102.7C259.083 101.6 259.133 100.7 259.233 100C259.433 99.3 259.733 98.95 260.133 98.95C260.333 98.95 260.583 99.5 260.883 100.6C261.183 101.7 261.433 102.45 261.633 102.85C261.833 103.95 262.083 105.1 262.383 106.3C262.783 107.5 263.133 108.5 263.433 109.3ZM275.133 31.75C278.533 31.75 280.983 30.75 282.483 28.75C283.983 26.75 284.733 24.15 284.733 20.95C284.733 19.35 284.183 17.7 283.083 16C282.083 14.2 280.583 12.75 278.583 11.65C278.483 11.55 278.283 11.45 277.983 11.35C277.783 11.15 277.583 11.05 277.383 11.05C277.283 11.15 277.383 11.4 277.683 11.8C277.983 12.1 278.233 12.4 278.433 12.7C279.433 14 279.933 15.95 279.933 18.55C279.933 20.65 279.483 22.4 278.583 23.8C277.683 25.1 276.683 26.2 275.583 27.1C274.483 27.9 273.483 28.55 272.583 29.05C271.683 29.45 271.233 29.8 271.233 30.1C271.233 30.9 271.733 31.4 272.733 31.6C273.833 31.7 274.633 31.75 275.133 31.75ZM269.583 25.75C271.283 25.35 272.883 24.55 274.383 23.35C275.983 22.05 276.783 20.45 276.783 18.55C276.783 17.35 276.333 15.95 275.433 14.35C274.633 12.75 273.383 11.55 271.683 10.75C271.483 10.65 271.033 10.5 270.333 10.3C269.733 10 269.333 9.89999 269.133 9.99999C268.933 10.1 269.083 10.45 269.583 11.05C270.083 11.65 270.433 12.2 270.633 12.7C271.433 14.4 271.733 15.85 271.533 17.05C271.333 18.15 270.933 19.15 270.333 20.05C269.833 20.95 269.283 21.8 268.683 22.6C268.083 23.3 267.783 24.05 267.783 24.85C267.783 25.95 268.383 26.25 269.583 25.75ZM265.233 17.65C265.233 18.15 265.383 18.7 265.683 19.3C265.983 19.9 266.483 20.2 267.183 20.2C267.683 20.2 268.083 19.9 268.383 19.3C268.683 18.6 268.833 18.05 268.833 17.65C268.833 17.15 268.683 16.6 268.383 16C268.083 15.3 267.683 14.95 267.183 14.95C266.483 14.95 265.983 15.3 265.683 16C265.383 16.6 265.233 17.15 265.233 17.65Z" fill="#FF9689"/>
</svg>
