<svg width="60" height="60" viewBox="0 0 60 60" fill="none" xmlns="http://www.w3.org/2000/svg">
<path d="M53.32 20H46L44.44 10.68C44.1257 9.26987 43.4354 7.97118 42.4423 6.92182C41.4493 5.87246 40.1907 5.11159 38.8 4.72C37.4029 4.2705 35.9474 4.02793 34.48 4H25.52C24.0526 4.02793 22.5972 4.2705 21.2 4.72C19.8094 5.11159 18.5507 5.87246 17.5577 6.92182C16.5647 7.97118 15.8743 9.26987 15.56 10.68L14 20H6.68001C6.36497 19.9981 6.05393 20.0706 5.77224 20.2117C5.49054 20.3528 5.24616 20.5584 5.05901 20.8119C4.87186 21.0653 4.74722 21.3594 4.69526 21.6701C4.64331 21.9809 4.66549 22.2995 4.76001 22.6L12.28 47.8C12.6629 49.0174 13.4239 50.081 14.4525 50.8363C15.4812 51.5916 16.7239 51.9992 18 52H42C43.2693 51.9908 44.503 51.5792 45.5236 50.8245C46.5443 50.0698 47.2992 49.0109 47.68 47.8L55.2 22.6C55.2935 22.3027 55.3163 21.9876 55.2664 21.6799C55.2166 21.3723 55.0955 21.0805 54.9129 20.8279C54.7303 20.5753 54.4911 20.3689 54.2146 20.2252C53.938 20.0815 53.6317 20.0043 53.32 20ZM18.08 20L19.52 11.32C19.6779 10.6113 20.0441 9.96599 20.5715 9.46704C21.099 8.96808 21.7636 8.63827 22.48 8.52C23.464 8.208 24.488 8.036 25.52 8H34.48C35.524 8.032 36.56 8.208 37.56 8.52C38.2764 8.63827 38.941 8.96808 39.4685 9.46704C39.996 9.96599 40.3622 10.6113 40.52 11.32L41.92 20H17.92H18.08Z" fill="#FF9689"/>
</svg>
