<svg width="43" height="60" viewBox="0 0 43 60" fill="none" xmlns="http://www.w3.org/2000/svg">
<g clip-path="url(#clip0_157_83)">
<path fill-rule="evenodd" clip-rule="evenodd" d="M39.2675 28.2325C39.7362 28.7013 39.9995 29.3371 39.9995 30C39.9995 30.6629 39.7362 31.2987 39.2675 31.7675L25.125 45.91C24.8944 46.1488 24.6185 46.3393 24.3135 46.4703C24.0085 46.6013 23.6805 46.6703 23.3485 46.6731C23.0166 46.676 22.6874 46.6128 22.3801 46.4871C22.0729 46.3614 21.7937 46.1757 21.559 45.941C21.3243 45.7063 21.1387 45.4272 21.0129 45.1199C20.8872 44.8127 20.824 44.4835 20.8269 44.1515C20.8298 43.8196 20.8987 43.4915 21.0297 43.1865C21.1608 42.8815 21.3512 42.6056 21.59 42.375L33.965 30L21.59 17.625C21.1346 17.1535 20.8826 16.522 20.8883 15.8665C20.894 15.211 21.1569 14.584 21.6205 14.1205C22.084 13.657 22.711 13.394 23.3665 13.3883C24.022 13.3826 24.6535 13.6346 25.125 14.09L39.2675 28.2325Z" fill="white"/>
</g>
<defs>
<clipPath id="clip0_157_83">
<rect width="60" height="60" fill="white"/>
</clipPath>
</defs>
</svg>
