<svg width="46" height="60" viewBox="0 0 46 60" fill="none" xmlns="http://www.w3.org/2000/svg">
<g clip-path="url(#clip0_157_87)">
<path fill-rule="evenodd" clip-rule="evenodd" d="M6.7325 31.7675C6.26382 31.2987 6.00053 30.6629 6.00053 30C6.00053 29.3371 6.26382 28.7013 6.7325 28.2325L20.875 14.09C21.1056 13.8512 21.3815 13.6607 21.6865 13.5297C21.9915 13.3987 22.3195 13.3297 22.6515 13.3269C22.9834 13.324 23.3126 13.3872 23.6199 13.5129C23.9271 13.6386 24.2063 13.8243 24.441 14.059C24.6757 14.2937 24.8613 14.5728 24.9871 14.8801C25.1128 15.1873 25.176 15.5165 25.1731 15.8485C25.1702 16.1804 25.1013 16.5085 24.9703 16.8135C24.8392 17.1185 24.6488 17.3944 24.41 17.625L12.035 30L24.41 42.375C24.8654 42.8465 25.1174 43.478 25.1117 44.1335C25.106 44.789 24.8431 45.416 24.3795 45.8795C23.916 46.343 23.289 46.606 22.6335 46.6117C21.978 46.6174 21.3465 46.3654 20.875 45.91L6.7325 31.7675Z" fill="white"/>
</g>
<defs>
<clipPath id="clip0_157_87">
<rect width="60" height="60" fill="white" transform="matrix(-1 0 0 -1 46 60)"/>
</clipPath>
</defs>
</svg>
