<svg width="30" height="30" viewBox="0 0 30 30" fill="none" xmlns="http://www.w3.org/2000/svg">
<g clip-path="url(#clip0_114_32)">
<path fill-rule="evenodd" clip-rule="evenodd" d="M19.6338 14.1162C19.8681 14.3506 19.9997 14.6685 19.9997 15C19.9997 15.3314 19.8681 15.6493 19.6338 15.8837L12.5625 22.955C12.4472 23.0744 12.3093 23.1696 12.1568 23.2351C12.0043 23.3006 11.8402 23.3351 11.6743 23.3365C11.5083 23.338 11.3437 23.3064 11.1901 23.2435C11.0364 23.1807 10.8969 23.0878 10.7795 22.9705C10.6621 22.8531 10.5693 22.7135 10.5065 22.5599C10.4436 22.4063 10.412 22.2417 10.4134 22.0757C10.4149 21.9098 10.4494 21.7457 10.5149 21.5932C10.5804 21.4407 10.6756 21.3028 10.795 21.1875L16.9825 15L10.795 8.81248C10.5673 8.57673 10.4413 8.26098 10.4442 7.93323C10.447 7.60548 10.5785 7.29197 10.8102 7.06021C11.042 6.82845 11.3555 6.69699 11.6832 6.69414C12.011 6.69129 12.3267 6.81728 12.5625 7.04498L19.6338 14.1162Z" fill="black"/>
</g>
<defs>
<clipPath id="clip0_114_32">
<rect width="30" height="30" fill="white"/>
</clipPath>
</defs>
</svg>
