<svg width="60" height="60" viewBox="0 0 60 60" fill="none" xmlns="http://www.w3.org/2000/svg">
<g clip-path="url(#clip0_164_147)">
<path d="M30 60C22.0435 60 14.4129 56.8393 8.7868 51.2132C3.16071 45.5871 0 37.9565 0 30C0 22.0435 3.16071 14.4129 8.7868 8.7868C14.4129 3.16071 22.0435 0 30 0C37.9565 0 45.5871 3.16071 51.2132 8.7868C56.8393 14.4129 60 22.0435 60 30C60 37.9565 56.8393 45.5871 51.2132 51.2132C45.5871 56.8393 37.9565 60 30 60ZM33.1763 29.4562C35.2547 28.7085 37.0026 27.2514 38.1124 25.3416C39.2221 23.4318 39.6225 21.1916 39.243 19.0156C38.8634 16.8396 37.7284 14.8673 36.0376 13.4459C34.3469 12.0245 32.2088 11.2452 30 11.2452C27.7912 11.2452 25.6531 12.0245 23.9624 13.4459C22.2716 14.8673 21.1366 16.8396 20.757 19.0156C20.3775 21.1916 20.7779 23.4318 21.8876 25.3416C22.9974 27.2514 24.7453 28.7085 26.8237 29.4562C20.5162 30.9788 15 36.6562 15 41.25C15 42.7313 15.5437 44.9813 18.75 44.9813H41.25C44.4562 44.9813 45 42.7313 45 41.25C45 36.66 39.4875 30.975 33.1763 29.4562Z" fill="#FF9689"/>
</g>
<defs>
<clipPath id="clip0_164_147">
<rect width="60" height="60" fill="white"/>
</clipPath>
</defs>
</svg>
