<svg width="60" height="62" viewBox="0 0 60 62" fill="none" xmlns="http://www.w3.org/2000/svg">
<path d="M30.0025 23.2144C28.0134 23.2144 26.1057 24.0152 24.6992 25.4406C23.2927 26.866 22.5025 28.7992 22.5025 30.815C22.5025 32.8308 23.2927 34.764 24.6992 36.1894C26.1057 37.6147 28.0134 38.4155 30.0025 38.4155C31.9916 38.4155 33.8993 37.6147 35.3058 36.1894C36.7123 34.764 37.5025 32.8308 37.5025 30.815C37.5025 28.7992 36.7123 26.866 35.3058 25.4406C33.8993 24.0152 31.9916 23.2144 30.0025 23.2144ZM30.0025 18.1474C33.3177 18.1474 36.4971 19.482 38.8413 21.8577C41.1855 24.2333 42.5025 27.4553 42.5025 30.815C42.5025 34.1746 41.1855 37.3967 38.8413 39.7723C36.4971 42.1479 33.3177 43.4825 30.0025 43.4825C26.6873 43.4825 23.5079 42.1479 21.1637 39.7723C18.8195 37.3967 17.5025 34.1746 17.5025 30.815C17.5025 27.4553 18.8195 24.2333 21.1637 21.8577C23.5079 19.482 26.6873 18.1474 30.0025 18.1474ZM46.2525 17.514C46.2525 18.354 45.9233 19.1595 45.3372 19.7534C44.7512 20.3473 43.9563 20.6809 43.1275 20.6809C42.2987 20.6809 41.5038 20.3473 40.9178 19.7534C40.3317 19.1595 40.0025 18.354 40.0025 17.514C40.0025 16.6741 40.3317 15.8686 40.9178 15.2747C41.5038 14.6808 42.2987 14.3472 43.1275 14.3472C43.9563 14.3472 44.7512 14.6808 45.3372 15.2747C45.9233 15.8686 46.2525 16.6741 46.2525 17.514ZM30.0025 10.5469C23.8175 10.5469 22.8075 10.5646 19.93 10.6938C17.97 10.7876 16.655 11.0536 15.435 11.535C14.414 11.9148 13.491 12.5237 12.735 13.316C11.9525 14.0821 11.3509 15.0175 10.975 16.0522C10.5 17.2936 10.2375 18.6237 10.1475 20.6075C10.0175 23.4045 10 24.3824 10 30.815C10 37.0854 10.0175 38.1064 10.145 41.0225C10.2375 43.0062 10.5 44.3414 10.9725 45.5752C11.3975 46.6773 11.8975 47.4703 12.7275 48.3114C13.57 49.1627 14.3525 49.6719 15.4275 50.0925C16.6625 50.5764 17.9775 50.8449 19.9275 50.9361C22.6875 51.0679 23.6525 51.0831 30 51.0831C36.1875 51.0831 37.195 51.0653 40.0725 50.9361C42.0275 50.8424 43.3425 50.5764 44.565 50.0975C45.585 49.7158 46.5077 49.1072 47.265 48.3165C48.1075 47.4652 48.61 46.6722 49.025 45.5803C49.5 44.3338 49.765 43.0012 49.855 41.02C49.985 38.2255 50 37.245 50 30.815C50 24.5471 49.9825 23.5235 49.855 20.6075C49.7625 18.6263 49.4975 17.2886 49.025 16.0522C48.6482 15.0186 48.0476 14.0836 47.2675 13.316C46.5118 12.5226 45.5888 11.9129 44.5675 11.5324C43.3425 11.0511 42.0275 10.785 40.0725 10.6938C37.315 10.5621 36.35 10.5469 30 10.5469M30 5.47986C36.7925 5.47986 37.64 5.50519 40.3075 5.63187C42.9675 5.75854 44.7825 6.18164 46.375 6.80995C48.025 7.45346 49.415 8.32499 50.805 9.73109C52.0762 10.9976 53.0599 12.5296 53.6875 14.2205C54.305 15.8343 54.725 17.6737 54.85 20.3718C54.9675 23.0726 55 23.9314 55 30.815C55 37.6985 54.975 38.5574 54.85 41.2581C54.725 43.9563 54.305 45.7931 53.6875 47.4095C53.0616 49.1013 52.0777 50.6336 50.805 51.8989C49.5549 53.1867 48.0433 54.1835 46.375 54.82C44.7825 55.4458 42.9675 55.8714 40.3075 55.9981C37.64 56.1172 36.7925 56.1501 30 56.1501C23.2075 56.1501 22.36 56.1248 19.6925 55.9981C17.0325 55.8714 15.22 55.4458 13.625 54.82C11.9558 54.1853 10.4438 53.1883 9.195 51.8989C7.92358 50.6325 6.9399 49.1005 6.3125 47.4095C5.6925 45.7956 5.275 43.9563 5.15 41.2581C5.03 38.5574 5 37.6985 5 30.815C5 23.9314 5.025 23.0726 5.15 20.3718C5.275 17.6737 5.6925 15.8369 6.3125 14.2205C6.93809 12.5285 7.92201 10.9961 9.195 9.73109C10.4442 8.44212 11.9561 7.44518 13.625 6.80995C15.2175 6.18164 17.03 5.75854 19.6925 5.63187C22.3625 5.51279 23.21 5.47986 30.0025 5.47986" fill="white"/>
</svg>
